M48
;Layer_Color=9474304
;FILE_FORMAT=2:5
INCH,LZ
;TYPE=PLATED
T1F00S00C0.01181
T2F00S00C0.02800
T3F00S00C0.03000
T4F00S00C0.03110
T5F00S00C0.03150
T6F00S00C0.03819
T7F00S00C0.04016
T8F00S00C0.13386
%
T01
X0291876Y0356875
X0298Y0354339
X0304124Y0356875
X0306661Y0363
X0304124Y0369125
X0298Y0371661
X0291876Y0369125
X0289339Y0363
X0633339
X0635876Y0356875
X0642Y0354339
X0648125Y0356875
X0650661Y0363
X0648125Y0369125
X0642Y0371661
X0635876Y0369125
Y0475876
X0642Y0473339
X0648125Y0475876
X0650661Y0482
X0648125Y0488125
X0642Y0490661
X0635876Y0488125
X0633339Y0482
X0306661
X0304124Y0488125
X0298Y0490661
X0291876Y0488125
X0289339Y0482
X0291876Y0475876
X0298Y0473339
X0304124Y0475876
T02
X04316Y04432
X041715Y045815
X0491047Y04447
X0484957Y0405743
X05276Y04261
T03
X0475Y0476
X0485
X0495
X0505
X0515
X0525
X0465
X0455
X0445
X0435
X0425
X0415
T04
X041Y03905
X042
X043
X044
X045
X046
Y042113
X045
X044
X043
X042
X041
X047
X048
X049
X05
Y03905
X049
X048
X047
T05
X0529Y039861
Y041239
T06
X03495Y0409
X03595
Y0419
X03495
Y0429
X03595
Y0439
X03495
Y0449
X03595
T07
X031Y0417
Y0427
Y0437
Y0447
Y0457
T08
X0298Y0363
X0642
Y0482
X0298
M30
