M48
;Layer_Color=9474304
;FILE_FORMAT=2:5
INCH,LZ
;TYPE=PLATED
T1F00S00C0.02756
T2F00S00C0.02800
T3F00S00C0.03150
T4F00S00C0.03346
T5F00S00C0.03500
T6F00S00C0.03819
T7F00S00C0.03937
T8F00S00C0.04016
T9F00S00C0.04200
T10F00S00C0.04331
T11F00S00C0.04400
T12F00S00C0.04500
T13F00S00C0.05118
%
T01
X0324512Y0173
X0394Y0307063
X0421Y0306563
X0294488Y0173
X0219083Y03295
X0173917
X0394Y0314937
X0421Y0314437
X04695Y0320063
Y0327937
T02
X05035Y02825
X0495Y0304
X05344Y02948
X0467Y03005
X05705Y03452
T03
X0146Y03655
X01505Y03705
X0146Y03755
X024561Y03475
X025939
X0428Y03905
X04325Y03955
X0428Y04005
Y04165
X04325Y04215
X0428Y04265
X04675Y04215
X04725Y04165
Y04265
T04
X03205Y01945
X03305
X03405
X03505
X03605
X03705
X03805
X03905
X04005
X04105
X04205
X04305
Y025525
X04205
X04105
X04005
X03905
X03805
X03705
X03605
X03505
X03405
X03305
X03205
X03105
X03005
X02905
X02805
X02705
X02605
X02505
X02405
Y01945
X02505
X02605
X02705
X02805
X02905
X03005
X03105
T05
X0515Y0455
Y0465
X0545
Y0455
T06
X05015Y019
X05115
Y02
X05015
Y021
X05115
Y022
X05015
Y023
X05115
T07
X05045Y03085
X05145
X05245
X05345
X020898Y0348
X017402
X032Y034798
Y031302
X05045Y03385
X05145
X05245
X05345
T08
X0239Y015
X0249
X0259
X0269
X03535Y01725
X03635
X03735
X0342Y02785
X0332
X03025Y0279
X02925
X02825
X02725
X02625
X02595Y01735
X02495
X02395
X057Y03145
Y03245
Y03345
T09
X03376Y04305
X03776
T10
X0295Y014
Y015
X0305
Y014
X0315
Y015
X0346264Y03125
X03565
X0366343
T11
X02385Y04115
Y04265
Y04415
Y04565
X02795
Y04415
Y04265
Y04115
T12
X0447Y04625
X0457
X0467
T13
X01365Y0406271
Y0426271
Y04505
X0174236Y0455587
Y0435744
X0203764
Y0455587
Y0375665
X0174236
X05945Y0406271
Y0426271
Y04505
Y04705
X0203764Y0475429
X0174236
X01365Y04705
M30
