G04*
G04 #@! TF.GenerationSoftware,Altium Limited,Altium Designer,23.2.1 (34)*
G04*
G04 Layer_Color=16711935*
%FSLAX25Y25*%
%MOIN*%
G70*
G04*
G04 #@! TF.SameCoordinates,78BCBE2E-08CC-4CAE-8EE4-54C03573570A*
G04*
G04*
G04 #@! TF.FilePolarity,Negative*
G04*
G01*
G75*
%ADD20R,0.05118X0.05118*%
%ADD21C,0.05118*%
%ADD22C,0.17623*%
%ADD23R,0.06902X0.06902*%
%ADD24C,0.06902*%
%ADD25C,0.05000*%
%ADD26R,0.05000X0.05000*%
%ADD27R,0.05485X0.05485*%
%ADD28C,0.05485*%
%ADD29R,0.06706X0.06706*%
%ADD30C,0.06706*%
%ADD31C,0.05800*%
%ADD32C,0.03162*%
%ADD45C,0.10236*%
D20*
X529000Y398610D02*
D03*
D21*
Y412390D02*
D03*
D22*
X298000Y482000D02*
D03*
X642000Y363000D02*
D03*
Y482000D02*
D03*
X298000Y363000D02*
D03*
D23*
X310000Y417000D02*
D03*
D24*
Y427000D02*
D03*
Y437000D02*
D03*
Y447000D02*
D03*
Y457000D02*
D03*
D25*
X415000Y476000D02*
D03*
X425000D02*
D03*
X435000D02*
D03*
X445000D02*
D03*
X455000D02*
D03*
X465000D02*
D03*
X475000D02*
D03*
X485000D02*
D03*
X495000D02*
D03*
X505000D02*
D03*
X515000D02*
D03*
D26*
X525000D02*
D03*
D27*
X410000Y390500D02*
D03*
D28*
X420000D02*
D03*
X430000D02*
D03*
X440000D02*
D03*
X450000D02*
D03*
X460000D02*
D03*
X470000D02*
D03*
X480000D02*
D03*
X490000D02*
D03*
X500000D02*
D03*
Y421130D02*
D03*
X490000D02*
D03*
X480000D02*
D03*
X470000D02*
D03*
X460000D02*
D03*
X450000D02*
D03*
X440000D02*
D03*
X430000D02*
D03*
X420000D02*
D03*
X410000D02*
D03*
D29*
X359500Y409000D02*
D03*
D30*
X349500D02*
D03*
X359500Y419000D02*
D03*
X349500D02*
D03*
X359500Y429000D02*
D03*
X349500D02*
D03*
X359500Y439000D02*
D03*
X349500D02*
D03*
X359500Y449000D02*
D03*
X349500D02*
D03*
D31*
X491047Y444700D02*
D03*
X484957Y405743D02*
D03*
X417150Y458150D02*
D03*
X527600Y426100D02*
D03*
X431600Y443200D02*
D03*
D32*
X304124Y488125D02*
D03*
X306661Y482000D02*
D03*
X304124Y475876D02*
D03*
X298000Y473339D02*
D03*
X291876Y475876D02*
D03*
X289339Y482000D02*
D03*
X291876Y488125D02*
D03*
X298000Y490661D02*
D03*
X648125Y369125D02*
D03*
X650661Y363000D02*
D03*
X648125Y356875D02*
D03*
X642000Y354339D02*
D03*
X635876Y356875D02*
D03*
X633339Y363000D02*
D03*
X635876Y369125D02*
D03*
X642000Y371661D02*
D03*
X648125Y488125D02*
D03*
X650661Y482000D02*
D03*
X648125Y475876D02*
D03*
X642000Y473339D02*
D03*
X635876Y475876D02*
D03*
X633339Y482000D02*
D03*
X635876Y488125D02*
D03*
X642000Y490661D02*
D03*
X304124Y369125D02*
D03*
X306661Y363000D02*
D03*
X304124Y356875D02*
D03*
X298000Y354339D02*
D03*
X291876Y356875D02*
D03*
X289339Y363000D02*
D03*
X291876Y369125D02*
D03*
X298000Y371661D02*
D03*
D45*
X307055Y482000D02*
G03*
X307055Y482000I-9055J0D01*
G01*
X651055Y363000D02*
G03*
X651055Y363000I-9055J0D01*
G01*
Y482000D02*
G03*
X651055Y482000I-9055J0D01*
G01*
X307055Y363000D02*
G03*
X307055Y363000I-9055J0D01*
G01*
M02*
