G04*
G04 #@! TF.GenerationSoftware,Altium Limited,Altium Designer,23.2.1 (34)*
G04*
G04 Layer_Color=8388736*
%FSLAX25Y25*%
%MOIN*%
G70*
G04*
G04 #@! TF.SameCoordinates,4C8DD8F6-A57A-4931-99BD-73A2A12B2EB2*
G04*
G04*
G04 #@! TF.FilePolarity,Negative*
G04*
G01*
G75*
%ADD16R,0.05938X0.05534*%
%ADD17R,0.03740X0.05709*%
%ADD18C,0.06299*%
%ADD19R,0.04934X0.06115*%
%ADD20R,0.05118X0.05118*%
%ADD21C,0.05118*%
%ADD22C,0.17623*%
%ADD23R,0.06902X0.06902*%
%ADD24C,0.06902*%
%ADD25C,0.05000*%
%ADD26R,0.05000X0.05000*%
%ADD27R,0.05485X0.05485*%
%ADD28C,0.05485*%
%ADD29R,0.06706X0.06706*%
%ADD30C,0.06706*%
%ADD31C,0.03162*%
%ADD32C,0.05800*%
D16*
X563500Y401707D02*
D03*
Y409000D02*
D03*
D17*
X473161Y438000D02*
D03*
X480839D02*
D03*
X455161D02*
D03*
X462839D02*
D03*
X437161D02*
D03*
X444839D02*
D03*
D18*
X307449Y482000D02*
G03*
X307449Y482000I-9449J0D01*
G01*
X651449Y363000D02*
G03*
X651449Y363000I-9449J0D01*
G01*
Y482000D02*
G03*
X651449Y482000I-9449J0D01*
G01*
X307449Y363000D02*
G03*
X307449Y363000I-9449J0D01*
G01*
D19*
X491047Y438500D02*
D03*
X496953D02*
D03*
X513953D02*
D03*
X508047D02*
D03*
X425953D02*
D03*
X420047D02*
D03*
D20*
X529000Y398610D02*
D03*
D21*
Y412390D02*
D03*
D22*
X298000Y482000D02*
D03*
X642000Y363000D02*
D03*
Y482000D02*
D03*
X298000Y363000D02*
D03*
D23*
X310000Y417000D02*
D03*
D24*
Y427000D02*
D03*
Y437000D02*
D03*
Y447000D02*
D03*
Y457000D02*
D03*
D25*
X415000Y476000D02*
D03*
X425000D02*
D03*
X435000D02*
D03*
X445000D02*
D03*
X455000D02*
D03*
X465000D02*
D03*
X475000D02*
D03*
X485000D02*
D03*
X495000D02*
D03*
X505000D02*
D03*
X515000D02*
D03*
D26*
X525000D02*
D03*
D27*
X410000Y390500D02*
D03*
D28*
X420000D02*
D03*
X430000D02*
D03*
X440000D02*
D03*
X450000D02*
D03*
X460000D02*
D03*
X470000D02*
D03*
X480000D02*
D03*
X490000D02*
D03*
X500000D02*
D03*
Y421130D02*
D03*
X490000D02*
D03*
X480000D02*
D03*
X470000D02*
D03*
X460000D02*
D03*
X450000D02*
D03*
X440000D02*
D03*
X430000D02*
D03*
X420000D02*
D03*
X410000D02*
D03*
D29*
X359500Y409000D02*
D03*
D30*
X349500D02*
D03*
X359500Y419000D02*
D03*
X349500D02*
D03*
X359500Y429000D02*
D03*
X349500D02*
D03*
X359500Y439000D02*
D03*
X349500D02*
D03*
X359500Y449000D02*
D03*
X349500D02*
D03*
D31*
X304124Y488125D02*
D03*
X306661Y482000D02*
D03*
X304124Y475876D02*
D03*
X298000Y473339D02*
D03*
X291876Y475876D02*
D03*
X289339Y482000D02*
D03*
X291876Y488125D02*
D03*
X298000Y490661D02*
D03*
X648125Y369125D02*
D03*
X650661Y363000D02*
D03*
X648125Y356875D02*
D03*
X642000Y354339D02*
D03*
X635876Y356875D02*
D03*
X633339Y363000D02*
D03*
X635876Y369125D02*
D03*
X642000Y371661D02*
D03*
X648125Y488125D02*
D03*
X650661Y482000D02*
D03*
X648125Y475876D02*
D03*
X642000Y473339D02*
D03*
X635876Y475876D02*
D03*
X633339Y482000D02*
D03*
X635876Y488125D02*
D03*
X642000Y490661D02*
D03*
X304124Y369125D02*
D03*
X306661Y363000D02*
D03*
X304124Y356875D02*
D03*
X298000Y354339D02*
D03*
X291876Y356875D02*
D03*
X289339Y363000D02*
D03*
X291876Y369125D02*
D03*
X298000Y371661D02*
D03*
D32*
X417150Y458150D02*
D03*
X527600Y426100D02*
D03*
X484957Y405743D02*
D03*
X491047Y444700D02*
D03*
X431600Y443200D02*
D03*
M02*
