G04*
G04 #@! TF.GenerationSoftware,Altium Limited,Altium Designer,23.2.1 (34)*
G04*
G04 Layer_Physical_Order=2*
G04 Layer_Color=16711680*
%FSLAX25Y25*%
%MOIN*%
G70*
G04*
G04 #@! TF.SameCoordinates,4C8DD8F6-A57A-4931-99BD-73A2A12B2EB2*
G04*
G04*
G04 #@! TF.FilePolarity,Positive*
G04*
G01*
G75*
%ADD20R,0.05118X0.05118*%
%ADD21C,0.05118*%
%ADD25C,0.05000*%
%ADD26R,0.05000X0.05000*%
%ADD34C,0.02500*%
%ADD35C,0.05000*%
%ADD36C,0.17323*%
%ADD37R,0.06102X0.06102*%
%ADD38C,0.06102*%
%ADD39R,0.04685X0.04685*%
%ADD40C,0.04685*%
%ADD41R,0.05906X0.05906*%
%ADD42C,0.05906*%
%ADD43C,0.02362*%
%ADD44C,0.04724*%
D20*
X529000Y398610D02*
D03*
D21*
Y412390D02*
D03*
D25*
X415000Y476000D02*
D03*
X425000D02*
D03*
X435000D02*
D03*
X445000D02*
D03*
X455000D02*
D03*
X465000D02*
D03*
X475000D02*
D03*
X485000D02*
D03*
X495000D02*
D03*
X505000D02*
D03*
X515000D02*
D03*
X417150Y458150D02*
D03*
X527600Y426100D02*
D03*
X484957Y405743D02*
D03*
X491047Y444700D02*
D03*
X431600Y443200D02*
D03*
D26*
X525000Y476000D02*
D03*
D34*
X423923Y390918D02*
X428098Y395093D01*
X501902D02*
X505245Y391750D01*
X487998Y394993D02*
X488098Y395093D01*
X481902D02*
X482002Y394993D01*
X488098Y395093D02*
X501902D01*
X428098D02*
X481902D01*
X470000Y421130D02*
X474592Y416538D01*
X491902D01*
X498402Y413037D02*
X511465Y426100D01*
X468092Y413037D02*
X498402D01*
X460000Y421130D02*
X468092Y413037D01*
X491902Y416538D02*
X495400Y420035D01*
Y426800D01*
X436400Y448000D02*
X487747D01*
X431600Y443200D02*
X436400Y448000D01*
X375699Y465801D02*
X394000Y447500D01*
X427300D02*
X431600Y443200D01*
X394000Y447500D02*
X427300D01*
X417150Y458150D02*
X423300Y452000D01*
X493768D01*
X498200Y442825D01*
X495750Y456000D02*
X501750Y450000D01*
X415000Y468400D02*
X427400Y456000D01*
X495750D01*
X415000Y468400D02*
Y476000D01*
X373700Y443200D02*
X431600D01*
X301465Y465801D02*
X375699D01*
X366000Y435500D02*
X373700Y443200D01*
X423900Y435500D02*
X431600Y443200D01*
X420200Y472800D02*
Y480800D01*
Y472800D02*
X433000Y460000D01*
X499700D01*
X359500Y429000D02*
X366000Y435500D01*
X423900D01*
X355899Y462301D02*
X364800Y453400D01*
Y444300D02*
Y453400D01*
X307500Y462301D02*
X355899D01*
X487747Y448000D02*
X491047Y444700D01*
X499700Y460000D02*
X506750Y452950D01*
X513500Y464000D02*
X533900Y443600D01*
X437000Y464000D02*
X513500D01*
X425000Y476000D02*
X437000Y464000D01*
X463250Y467750D02*
X516750D01*
X490200Y471250D02*
X500250D01*
X455000Y476000D02*
X463250Y467750D01*
X500250Y471250D02*
X505000Y476000D01*
X490200Y471250D02*
Y478100D01*
X516750Y467750D02*
X537400Y447100D01*
X511465Y426100D02*
X527600D01*
X482002Y394993D02*
X487998D01*
X414152Y411652D02*
X420522D01*
X393200Y390700D02*
X414152Y411652D01*
X367800Y390700D02*
X393200D01*
X394000Y383700D02*
X417300Y407000D01*
X425870D02*
X440000Y421130D01*
X417300Y407000D02*
X425870D01*
X470000Y390500D02*
X477000Y383500D01*
X529400D02*
X537400Y391500D01*
X477000Y383500D02*
X529400D01*
X430000Y390500D02*
X441500Y379000D01*
X534620D01*
X540900Y385280D01*
X304000Y458801D02*
X307500Y462301D01*
X304000Y453000D02*
X310000Y447000D01*
X304000Y453000D02*
Y458801D01*
X300000Y447000D02*
X310000Y437000D01*
X300000Y447000D02*
Y464337D01*
X301465Y465801D01*
X530650Y391750D02*
X533900Y395000D01*
X420418Y390918D02*
X423923D01*
X505245Y391750D02*
X530650D01*
X420000Y390500D02*
X420418Y390918D01*
X344200Y395300D02*
Y413700D01*
X355800Y383700D02*
X394000D01*
X344200Y395300D02*
X355800Y383700D01*
X310000Y457000D02*
X341500D01*
X349500Y449000D01*
X359500Y439000D02*
X364800Y444300D01*
X533900Y395000D02*
Y443600D01*
X537400Y391500D02*
Y447100D01*
X480000Y421130D02*
Y424625D01*
X498200Y442825D01*
X344200Y413700D02*
X349500Y419000D01*
X490000Y421130D02*
Y427675D01*
X501750Y439425D01*
Y450000D01*
X487500Y480800D02*
X490200Y478100D01*
X420200Y480800D02*
X487500D01*
X506750Y438150D02*
Y452950D01*
X495400Y426800D02*
X506750Y438150D01*
X495000Y476000D02*
X500300Y481300D01*
X529800D01*
X540900Y470200D01*
Y385280D02*
Y470200D01*
X349500Y409000D02*
X367800Y390700D01*
X420522Y411652D02*
X430000Y421130D01*
D35*
X463158Y405842D02*
X484957D01*
X426130Y399843D02*
X483870D01*
X503870D02*
X507212Y396500D01*
X483870Y399843D02*
X483969Y399743D01*
X486130Y399843D02*
X503870D01*
X484957Y405743D02*
Y405842D01*
X450000Y419000D02*
X463158Y405842D01*
X486031Y399743D02*
X486130Y399843D01*
X410000Y390500D02*
X416860Y397360D01*
X485056Y405842D02*
X497925D01*
X395790Y376290D02*
X410000Y390500D01*
X484957Y405743D02*
X485056Y405842D01*
X497925D02*
X504472Y412390D01*
X450000Y419000D02*
Y421130D01*
X445260Y428000D02*
X450000Y423260D01*
X377626Y428000D02*
X445260D01*
X359953Y410327D02*
X377626Y428000D01*
X450000Y421130D02*
X450000Y421130D01*
X450000Y421130D02*
Y423260D01*
X483969Y399743D02*
X486031D01*
X416860Y397360D02*
X423648D01*
X426130Y399843D01*
X356493Y376290D02*
X395790D01*
X335497Y397286D02*
X356493Y376290D01*
X335497Y397286D02*
Y402555D01*
X314501Y423551D02*
X335497Y402555D01*
X313480Y423551D02*
X314501D01*
X310031Y427000D02*
X313480Y423551D01*
X310000Y427000D02*
X310031D01*
X507212Y396500D02*
X526890D01*
X529000Y398610D01*
X359500Y409000D02*
X359953Y409453D01*
Y410327D01*
X504472Y412390D02*
X529000D01*
D36*
X298000Y482000D02*
D03*
X642000Y363000D02*
D03*
Y482000D02*
D03*
X298000Y363000D02*
D03*
D37*
X310000Y417000D02*
D03*
D38*
Y427000D02*
D03*
Y437000D02*
D03*
Y447000D02*
D03*
Y457000D02*
D03*
D39*
X410000Y390500D02*
D03*
D40*
X420000D02*
D03*
X430000D02*
D03*
X440000D02*
D03*
X450000D02*
D03*
X460000D02*
D03*
X470000D02*
D03*
X480000D02*
D03*
X490000D02*
D03*
X500000D02*
D03*
Y421130D02*
D03*
X490000D02*
D03*
X480000D02*
D03*
X470000D02*
D03*
X460000D02*
D03*
X450000D02*
D03*
X440000D02*
D03*
X430000D02*
D03*
X420000D02*
D03*
X410000D02*
D03*
D41*
X359500Y409000D02*
D03*
D42*
X349500D02*
D03*
X359500Y419000D02*
D03*
X349500D02*
D03*
X359500Y429000D02*
D03*
X349500D02*
D03*
X359500Y439000D02*
D03*
X349500D02*
D03*
X359500Y449000D02*
D03*
X349500D02*
D03*
D43*
X304124Y488125D02*
D03*
X306661Y482000D02*
D03*
X304124Y475876D02*
D03*
X298000Y473339D02*
D03*
X291876Y475876D02*
D03*
X289339Y482000D02*
D03*
X291876Y488125D02*
D03*
X298000Y490661D02*
D03*
X648125Y369125D02*
D03*
X650661Y363000D02*
D03*
X648125Y356875D02*
D03*
X642000Y354339D02*
D03*
X635876Y356875D02*
D03*
X633339Y363000D02*
D03*
X635876Y369125D02*
D03*
X642000Y371661D02*
D03*
X648125Y488125D02*
D03*
X650661Y482000D02*
D03*
X648125Y475876D02*
D03*
X642000Y473339D02*
D03*
X635876Y475876D02*
D03*
X633339Y482000D02*
D03*
X635876Y488125D02*
D03*
X642000Y490661D02*
D03*
X304124Y369125D02*
D03*
X306661Y363000D02*
D03*
X304124Y356875D02*
D03*
X298000Y354339D02*
D03*
X291876Y356875D02*
D03*
X289339Y363000D02*
D03*
X291876Y369125D02*
D03*
X298000Y371661D02*
D03*
D44*
X308637Y482000D02*
G03*
X308637Y482000I-10637J0D01*
G01*
X652637Y363000D02*
G03*
X652637Y363000I-10637J0D01*
G01*
Y482000D02*
G03*
X652637Y482000I-10637J0D01*
G01*
X308637Y363000D02*
G03*
X308637Y363000I-10637J0D01*
G01*
M02*
