G04*
G04 #@! TF.GenerationSoftware,Altium Limited,Altium Designer,23.2.1 (34)*
G04*
G04 Layer_Physical_Order=2*
G04 Layer_Color=16711680*
%FSLAX25Y25*%
%MOIN*%
G70*
G04*
G04 #@! TF.SameCoordinates,AA8C1714-0897-42F8-9FD5-1005084B58DB*
G04*
G04*
G04 #@! TF.FilePolarity,Positive*
G04*
G01*
G75*
%ADD21C,0.06102*%
%ADD22R,0.06102X0.06102*%
%ADD23R,0.06200X0.06200*%
%ADD24C,0.06200*%
%ADD27C,0.06400*%
%ADD28R,0.06400X0.06400*%
%ADD31C,0.06181*%
%ADD32R,0.06181X0.06181*%
%ADD34C,0.04724*%
%ADD35R,0.04724X0.04724*%
%ADD36R,0.04724X0.04724*%
%ADD39C,0.05118*%
%ADD40R,0.05118X0.05118*%
%ADD41C,0.07874*%
%ADD42R,0.07874X0.07874*%
%ADD43R,0.06102X0.06102*%
%ADD44R,0.06500X0.06500*%
%ADD45C,0.06500*%
%ADD46C,0.05500*%
%ADD47R,0.05500X0.05500*%
%ADD48C,0.05315*%
%ADD49R,0.05315X0.05315*%
%ADD54C,0.02500*%
%ADD55C,0.05000*%
%ADD56C,0.10000*%
%ADD57C,0.09500*%
%ADD59C,0.04134*%
%ADD60R,0.04134X0.04134*%
%ADD61C,0.05906*%
%ADD62R,0.05906X0.05906*%
%ADD63C,0.07087*%
%ADD64R,0.07087X0.07087*%
%ADD65C,0.06299*%
%ADD66R,0.06496X0.06496*%
%ADD67C,0.06496*%
%ADD68C,0.05000*%
%ADD69C,0.09000*%
D21*
X174020Y348000D02*
D03*
X534500Y308500D02*
D03*
X524500D02*
D03*
X514500D02*
D03*
X504500Y338500D02*
D03*
X514500D02*
D03*
X524500D02*
D03*
X534500D02*
D03*
X320000Y347980D02*
D03*
X363500Y172500D02*
D03*
X373500D02*
D03*
X302500Y279000D02*
D03*
X292500D02*
D03*
X282500D02*
D03*
X272500D02*
D03*
X259000Y150000D02*
D03*
X249000D02*
D03*
X239000D02*
D03*
X249500Y173500D02*
D03*
X239500D02*
D03*
X570000Y324500D02*
D03*
Y334500D02*
D03*
D22*
X208980Y348000D02*
D03*
X504500Y308500D02*
D03*
X353500Y172500D02*
D03*
X262500Y279000D02*
D03*
X269000Y150000D02*
D03*
X259500Y173500D02*
D03*
D23*
X337600Y430500D02*
D03*
D24*
X377600D02*
D03*
D27*
X238500Y456500D02*
D03*
Y441500D02*
D03*
Y426500D02*
D03*
X279500D02*
D03*
Y441500D02*
D03*
Y456500D02*
D03*
D28*
X238500Y411500D02*
D03*
X279500D02*
D03*
D31*
X342000Y278500D02*
D03*
D32*
X332000D02*
D03*
D34*
X219083Y329500D02*
D03*
X469500Y327937D02*
D03*
X421000Y314437D02*
D03*
X394000Y314937D02*
D03*
X324512Y173000D02*
D03*
D35*
X173917Y329500D02*
D03*
X294488Y173000D02*
D03*
D36*
X469500Y320063D02*
D03*
X421000Y306563D02*
D03*
X394000Y307063D02*
D03*
D39*
X259390Y347500D02*
D03*
D40*
X245610D02*
D03*
D41*
X203764Y475429D02*
D03*
Y455587D02*
D03*
Y435744D02*
D03*
X174236Y475429D02*
D03*
Y455587D02*
D03*
Y435744D02*
D03*
Y375665D02*
D03*
D42*
X203764D02*
D03*
D43*
X320000Y313020D02*
D03*
X570000Y314500D02*
D03*
D44*
X447000Y462500D02*
D03*
D45*
X457000D02*
D03*
X467000D02*
D03*
D46*
X545000Y465000D02*
D03*
Y455000D02*
D03*
X515000D02*
D03*
D47*
Y465000D02*
D03*
D48*
X430500Y194500D02*
D03*
X420500D02*
D03*
X410500D02*
D03*
X400500D02*
D03*
X390500D02*
D03*
X380500D02*
D03*
X370500D02*
D03*
X360500D02*
D03*
X350500D02*
D03*
X340500D02*
D03*
X330500D02*
D03*
X320500D02*
D03*
X310500D02*
D03*
X300500D02*
D03*
X290500D02*
D03*
X280500D02*
D03*
X270500D02*
D03*
X260500D02*
D03*
X250500D02*
D03*
X240500D02*
D03*
Y255250D02*
D03*
X250500D02*
D03*
X260500D02*
D03*
X270500D02*
D03*
X280500D02*
D03*
X290500D02*
D03*
X300500D02*
D03*
X310500D02*
D03*
X320500D02*
D03*
X330500D02*
D03*
X340500D02*
D03*
X350500D02*
D03*
X360500D02*
D03*
X370500D02*
D03*
X380500D02*
D03*
X390500D02*
D03*
X400500D02*
D03*
X410500D02*
D03*
X420500D02*
D03*
D49*
X430500D02*
D03*
D54*
X503500Y282500D02*
Y293336D01*
X356500Y312500D02*
X363049Y305951D01*
X392888D01*
X394000Y307063D01*
X321500Y133500D02*
X353500D01*
X386500Y166500D02*
Y178035D01*
X353500Y133500D02*
X386500Y166500D01*
X395000Y180000D02*
X526536D01*
X528000Y181465D02*
Y203500D01*
X511500Y220000D02*
X528000Y203500D01*
X526536Y180000D02*
X528000Y181465D01*
X380500Y194500D02*
X395000Y180000D01*
X420500Y255250D02*
X428250Y263000D01*
X511900D02*
X550500Y301600D01*
X428250Y263000D02*
X511900D01*
X407000Y296000D02*
X462500D01*
X375500Y264500D02*
X407000Y296000D01*
X462500D02*
X467000Y300500D01*
X375500Y251600D02*
Y264500D01*
X372500Y248600D02*
X375500Y251600D01*
X347150Y248600D02*
X372500D01*
X232110Y361000D02*
X245610Y347500D01*
X146000Y365500D02*
X150500Y361000D01*
X232110D01*
X467387Y421613D02*
Y424613D01*
X439500Y433000D02*
X459000D01*
X467387Y421613D02*
X467500Y421500D01*
X459000Y433000D02*
X467387Y424613D01*
X432750Y426250D02*
X439500Y433000D01*
X432750Y424533D02*
Y426250D01*
X432500Y421500D02*
X432722Y421722D01*
Y424504D02*
X432750Y424533D01*
X432722Y421722D02*
Y424504D01*
X345500Y179500D02*
X385035D01*
X386500Y178035D01*
X420500Y194500D02*
X426000Y200000D01*
X501500D01*
X497000Y194500D02*
X501500Y190000D01*
X430500Y194500D02*
X497000D01*
X407200Y307063D02*
X407700Y306563D01*
X421000D01*
X394000Y307063D02*
X407200D01*
X495478Y309378D02*
X500000Y313900D01*
X495478Y304478D02*
Y309378D01*
X469500Y320063D02*
X490313Y299250D01*
X495000Y304000D02*
X495478Y304478D01*
X525250Y299250D02*
X534500Y308500D01*
X490313Y299250D02*
X525250D01*
X503500Y293336D02*
X504964Y294800D01*
X534400D01*
X224000Y244500D02*
X259750D01*
X173917Y294583D02*
Y329500D01*
Y294583D02*
X224000Y244500D01*
X259750D02*
X270500Y255250D01*
X315000Y150000D02*
X319000Y146000D01*
X278500Y159500D02*
X305500D01*
X269000Y150000D02*
X278500Y159500D01*
X305500D02*
X315000Y150000D01*
X347000Y146000D02*
X373500Y172500D01*
X319000Y146000D02*
X347000D01*
X315000Y140000D02*
X321500Y133500D01*
X330500Y194500D02*
X345500Y179500D01*
X550500Y301600D02*
Y305000D01*
X570000Y324500D01*
X400500Y194500D02*
X426000Y220000D01*
X501500D01*
X486500Y426500D02*
X515000Y455000D01*
X472500Y426500D02*
X486500D01*
X245610Y347500D02*
X250510Y342600D01*
X314620D01*
X320000Y347980D01*
X421000Y306563D02*
X456000D01*
X469500Y320063D01*
X340500Y255250D02*
X347150Y248600D01*
X500000Y313900D02*
X509100D01*
X514500Y308500D01*
X342000Y278500D02*
X347250D01*
X370500Y255250D01*
X524500Y308500D02*
Y315000D01*
X554700Y345200D01*
X570500D01*
X332000Y278500D02*
X343800Y266700D01*
X349050D01*
X360500Y255250D01*
X426000Y210000D02*
X501500D01*
X410500Y194500D02*
X426000Y210000D01*
X160165Y375665D02*
X174236D01*
X160000Y375500D02*
X160165Y375665D01*
X146000Y375500D02*
X160000D01*
D55*
X407937Y446563D02*
X428000Y426500D01*
X197496Y322500D02*
X329500D01*
X339500Y312500D01*
X346264D01*
X111782Y339000D02*
X180996D01*
X197496Y322500D01*
X418250Y235000D02*
X418250Y235000D01*
X407250Y246000D02*
X418250Y235000D01*
X496500D01*
X378500D02*
X418250D01*
X502827Y230453D02*
X538374Y266000D01*
X574000D01*
X587000Y279000D01*
Y311571D01*
X570000Y314500D02*
X584071D01*
X587000Y311571D01*
X501953Y230453D02*
X502827D01*
X501500Y230000D02*
X501953Y230453D01*
X111782Y384000D02*
X222890D01*
X259390Y347500D01*
X391852Y255190D02*
X401042Y246000D01*
X407250D01*
X239000Y142929D02*
Y149702D01*
Y142929D02*
X241929Y140000D01*
X275000D01*
X281748Y146748D02*
X291343D01*
X275000Y140000D02*
X281748Y146748D01*
X294595Y150000D02*
X295000D01*
X291343Y146748D02*
X294595Y150000D01*
X108853Y341929D02*
Y381071D01*
Y341929D02*
X111782Y339000D01*
X108853Y381071D02*
X111782Y384000D01*
X221083Y331500D02*
X347343D01*
X366094Y312749D01*
X219083Y329500D02*
X221083Y331500D01*
X394500Y314437D02*
X421000D01*
X394000Y314937D02*
X394000D01*
X394500Y314437D01*
X368780Y314937D02*
X394000D01*
X366343Y312500D02*
X368780Y314937D01*
X496500Y235000D02*
X501500Y230000D01*
X340560Y194560D02*
Y197060D01*
X390500Y255250D02*
X390560Y255190D01*
X340560Y197060D02*
X378500Y235000D01*
X390560Y255190D02*
X391852D01*
X340500Y194500D02*
X340560Y194560D01*
D56*
X238500Y406449D02*
X260449Y384500D01*
X341000D02*
X377600Y421100D01*
X260449Y384500D02*
X341000D01*
X269358Y399142D02*
X290642D01*
X296500Y405000D01*
Y442500D01*
X263000Y405500D02*
X269358Y399142D01*
X263000Y405500D02*
Y417500D01*
X207642Y421642D02*
X227500Y441500D01*
X199358Y421642D02*
X207642D01*
X174236Y435744D02*
X185256D01*
X227500Y441500D02*
X238500D01*
X185256Y435744D02*
X199358Y421642D01*
X254000Y426500D02*
X263000Y417500D01*
X254000Y426500D02*
Y446506D01*
X279500Y456500D02*
X282500D01*
X296500Y442500D01*
X115358Y489000D02*
X183142D01*
X203142Y454965D02*
X203764Y455587D01*
X189000Y460823D02*
X194858Y454965D01*
X183142Y489000D02*
X189000Y483142D01*
X194858Y454965D02*
X203142D01*
X189000Y460823D02*
Y483142D01*
X288500Y465500D02*
X308500D01*
X279500Y456500D02*
X288500Y465500D01*
X308500D02*
X337600Y436400D01*
Y430500D02*
Y436400D01*
X377600Y421100D02*
Y430500D01*
X109500Y448129D02*
Y483142D01*
Y448129D02*
X131358Y426271D01*
X109500Y483142D02*
X115358Y489000D01*
X131358Y426271D02*
X136500D01*
Y450500D02*
X161429Y475429D01*
X174236D01*
X238500Y406449D02*
Y411500D01*
X268500Y437500D02*
Y467942D01*
X262642Y473800D02*
X268500Y467942D01*
X244006Y456500D02*
X254000Y446506D01*
X268500Y437500D02*
X279500Y426500D01*
X238500Y456500D02*
X244006D01*
X221977Y473800D02*
X262642D01*
X206699Y458522D02*
X221977Y473800D01*
D57*
X502052Y468052D02*
X511948D01*
X483500Y449500D02*
X502052Y468052D01*
X462858Y449500D02*
X483500D01*
X511948Y468052D02*
X515000Y465000D01*
X457000Y455358D02*
X462858Y449500D01*
X550500Y470500D02*
X594500D01*
X545000Y465000D02*
X550500Y470500D01*
D59*
X146000Y365500D02*
D03*
X150500Y370500D02*
D03*
X467500Y421500D02*
D03*
X472500Y426500D02*
D03*
X432500Y395500D02*
D03*
X428000Y390500D02*
D03*
X432500Y421500D02*
D03*
X428000Y416500D02*
D03*
D60*
X146000Y375500D02*
D03*
X472500Y416500D02*
D03*
X428000Y400500D02*
D03*
Y426500D02*
D03*
D61*
X511500Y190000D02*
D03*
X501500D02*
D03*
X511500Y200000D02*
D03*
X501500D02*
D03*
X511500Y210000D02*
D03*
X501500D02*
D03*
X511500Y220000D02*
D03*
X501500D02*
D03*
X511500Y230000D02*
D03*
D62*
X501500D02*
D03*
D63*
X594500Y426271D02*
D03*
Y470500D02*
D03*
X136500Y450500D02*
D03*
Y406271D02*
D03*
D64*
X594500D02*
D03*
Y450500D02*
D03*
X136500Y470500D02*
D03*
Y426271D02*
D03*
D65*
X346264Y312500D02*
D03*
X366343D02*
D03*
X356500D02*
D03*
D66*
X295000Y140000D02*
D03*
D67*
Y150000D02*
D03*
X305000Y140000D02*
D03*
X315000D02*
D03*
X305000Y150000D02*
D03*
X315000D02*
D03*
D68*
X503500Y282500D02*
D03*
X495000Y304000D02*
D03*
X467000Y300500D02*
D03*
X534400Y294800D02*
D03*
X570500Y345200D02*
D03*
D69*
X377600Y430500D02*
X393663Y446563D01*
X407937D01*
X443874Y482500D01*
X473571D02*
X476500Y479571D01*
X443874Y482500D02*
X473571D01*
X476500Y472000D02*
Y479571D01*
X467000Y462500D02*
X476500Y472000D01*
X457000Y455358D02*
Y462500D01*
M02*
