G04*
G04 #@! TF.GenerationSoftware,Altium Limited,Altium Designer,23.2.1 (34)*
G04*
G04 Layer_Physical_Order=1*
G04 Layer_Color=255*
%FSLAX25Y25*%
%MOIN*%
G70*
G04*
G04 #@! TF.SameCoordinates,AA8C1714-0897-42F8-9FD5-1005084B58DB*
G04*
G04*
G04 #@! TF.FilePolarity,Positive*
G04*
G01*
G75*
%ADD15R,0.06127X0.05924*%
%ADD16R,0.05709X0.03740*%
%ADD17R,0.03740X0.05709*%
%ADD18R,0.05924X0.06127*%
%ADD21C,0.06102*%
%ADD22R,0.06102X0.06102*%
%ADD23R,0.06200X0.06200*%
%ADD24C,0.06200*%
%ADD27C,0.06400*%
%ADD28R,0.06400X0.06400*%
%ADD31C,0.06181*%
%ADD32R,0.06181X0.06181*%
%ADD34C,0.04724*%
%ADD35R,0.04724X0.04724*%
%ADD36R,0.04724X0.04724*%
%ADD39C,0.05118*%
%ADD40R,0.05118X0.05118*%
%ADD41C,0.07874*%
%ADD42R,0.07874X0.07874*%
%ADD43R,0.06102X0.06102*%
%ADD44R,0.06500X0.06500*%
%ADD45C,0.06500*%
%ADD46C,0.05500*%
%ADD47R,0.05500X0.05500*%
%ADD48C,0.05315*%
%ADD49R,0.05315X0.05315*%
%ADD54C,0.02500*%
%ADD55C,0.05000*%
%ADD56C,0.10000*%
%ADD57C,0.09500*%
%ADD58C,0.04000*%
%ADD59C,0.04134*%
%ADD60R,0.04134X0.04134*%
%ADD61C,0.05906*%
%ADD62R,0.05906X0.05906*%
%ADD63C,0.07087*%
%ADD64R,0.07087X0.07087*%
%ADD65C,0.06299*%
%ADD66R,0.06496X0.06496*%
%ADD67C,0.06496*%
%ADD68C,0.05000*%
D15*
X556070Y366546D02*
D03*
Y359454D02*
D03*
X467000Y279454D02*
D03*
Y286546D02*
D03*
X477500Y359454D02*
D03*
Y366546D02*
D03*
X490000Y327093D02*
D03*
Y320000D02*
D03*
X550000Y320454D02*
D03*
Y327546D02*
D03*
X338000Y165454D02*
D03*
Y172546D02*
D03*
D16*
X522858Y369213D02*
D03*
Y361536D02*
D03*
X481500Y288839D02*
D03*
Y281161D02*
D03*
X570000Y369213D02*
D03*
Y361536D02*
D03*
X496250Y281161D02*
D03*
Y288839D02*
D03*
X511000Y281161D02*
D03*
Y288839D02*
D03*
X525750Y281161D02*
D03*
Y288839D02*
D03*
X540500Y281161D02*
D03*
Y288839D02*
D03*
X570000Y281161D02*
D03*
Y288839D02*
D03*
X555250Y281161D02*
D03*
Y288839D02*
D03*
X447500Y417000D02*
D03*
Y424677D02*
D03*
X121500Y366677D02*
D03*
Y359000D02*
D03*
X132500D02*
D03*
Y366677D02*
D03*
X507144Y361536D02*
D03*
Y369213D02*
D03*
X538572Y361536D02*
D03*
Y369213D02*
D03*
X491430Y361536D02*
D03*
Y369213D02*
D03*
D17*
X343000Y151500D02*
D03*
X335323D02*
D03*
X335161Y141000D02*
D03*
X342839D02*
D03*
X447323Y391000D02*
D03*
X455000D02*
D03*
X447661Y402000D02*
D03*
X455339D02*
D03*
X351911Y349500D02*
D03*
X359589D02*
D03*
X335161D02*
D03*
X342839D02*
D03*
X368661D02*
D03*
X376339D02*
D03*
D18*
X374546Y279000D02*
D03*
X367454D02*
D03*
X241500D02*
D03*
X234407D02*
D03*
X276407Y173000D02*
D03*
X283500D02*
D03*
D21*
X174020Y348000D02*
D03*
X534500Y308500D02*
D03*
X524500D02*
D03*
X514500D02*
D03*
X504500Y338500D02*
D03*
X514500D02*
D03*
X524500D02*
D03*
X534500D02*
D03*
X320000Y347980D02*
D03*
X363500Y172500D02*
D03*
X373500D02*
D03*
X302500Y279000D02*
D03*
X292500D02*
D03*
X282500D02*
D03*
X272500D02*
D03*
X259000Y150000D02*
D03*
X249000D02*
D03*
X239000D02*
D03*
X249500Y173500D02*
D03*
X239500D02*
D03*
X570000Y324500D02*
D03*
Y334500D02*
D03*
D22*
X208980Y348000D02*
D03*
X504500Y308500D02*
D03*
X353500Y172500D02*
D03*
X262500Y279000D02*
D03*
X269000Y150000D02*
D03*
X259500Y173500D02*
D03*
D23*
X337600Y430500D02*
D03*
D24*
X377600D02*
D03*
D27*
X238500Y456500D02*
D03*
Y441500D02*
D03*
Y426500D02*
D03*
X279500D02*
D03*
Y441500D02*
D03*
Y456500D02*
D03*
D28*
X238500Y411500D02*
D03*
X279500D02*
D03*
D31*
X342000Y278500D02*
D03*
D32*
X332000D02*
D03*
D34*
X219083Y329500D02*
D03*
X469500Y327937D02*
D03*
X421000Y314437D02*
D03*
X394000Y314937D02*
D03*
X324512Y173000D02*
D03*
D35*
X173917Y329500D02*
D03*
X294488Y173000D02*
D03*
D36*
X469500Y320063D02*
D03*
X421000Y306563D02*
D03*
X394000Y307063D02*
D03*
D39*
X259390Y347500D02*
D03*
D40*
X245610D02*
D03*
D41*
X203764Y475429D02*
D03*
Y455587D02*
D03*
Y435744D02*
D03*
X174236Y475429D02*
D03*
Y455587D02*
D03*
Y435744D02*
D03*
Y375665D02*
D03*
D42*
X203764D02*
D03*
D43*
X320000Y313020D02*
D03*
X570000Y314500D02*
D03*
D44*
X447000Y462500D02*
D03*
D45*
X457000D02*
D03*
X467000D02*
D03*
D46*
X545000Y465000D02*
D03*
Y455000D02*
D03*
X515000D02*
D03*
D47*
Y465000D02*
D03*
D48*
X430500Y194500D02*
D03*
X420500D02*
D03*
X410500D02*
D03*
X400500D02*
D03*
X390500D02*
D03*
X380500D02*
D03*
X370500D02*
D03*
X360500D02*
D03*
X350500D02*
D03*
X340500D02*
D03*
X330500D02*
D03*
X320500D02*
D03*
X310500D02*
D03*
X300500D02*
D03*
X290500D02*
D03*
X280500D02*
D03*
X270500D02*
D03*
X260500D02*
D03*
X250500D02*
D03*
X240500D02*
D03*
Y255250D02*
D03*
X250500D02*
D03*
X260500D02*
D03*
X270500D02*
D03*
X280500D02*
D03*
X290500D02*
D03*
X300500D02*
D03*
X310500D02*
D03*
X320500D02*
D03*
X330500D02*
D03*
X340500D02*
D03*
X350500D02*
D03*
X360500D02*
D03*
X370500D02*
D03*
X380500D02*
D03*
X390500D02*
D03*
X400500D02*
D03*
X410500D02*
D03*
X420500D02*
D03*
D49*
X430500D02*
D03*
D54*
X377000Y390661D02*
Y430500D01*
X459200Y482000D02*
X482000Y459200D01*
X346200Y482000D02*
X459200D01*
X324200Y460000D02*
X346200Y482000D01*
X482000Y384300D02*
Y459200D01*
X477500Y379800D02*
X482000Y384300D01*
X576000Y284123D02*
Y318500D01*
X570620Y281782D02*
X573659D01*
X576000Y284123D01*
X570000Y324500D02*
X576000Y318500D01*
X570000Y281161D02*
X570620Y281782D01*
X496870D02*
X502105D01*
X502823Y282500D01*
X503500D01*
X496250Y281161D02*
X496870Y281782D01*
X502854Y274000D02*
X510016Y281161D01*
X478550Y274000D02*
X502854D01*
X473097Y279454D02*
X478550Y274000D01*
X374300Y161300D02*
X380500Y167500D01*
Y194500D01*
X349300Y161300D02*
X374300D01*
X507000Y242000D02*
X511500Y237500D01*
X438000Y242000D02*
X507000D01*
X511500Y230000D02*
Y237500D01*
X517035Y190000D02*
X518500Y191464D01*
Y273661D01*
X511500Y190000D02*
X517035D01*
X517768Y274394D02*
X518500Y273661D01*
X511000Y281161D02*
X517768Y274394D01*
X301000Y130500D02*
X305000Y134500D01*
Y140000D01*
X284964Y130500D02*
X301000D01*
X283500Y131965D02*
X284964Y130500D01*
X283500Y131965D02*
Y173000D01*
X282000Y125000D02*
X313000D01*
X324512Y136512D01*
X277000Y130000D02*
X282000Y125000D01*
X277000Y130000D02*
Y172407D01*
X306500Y314484D02*
Y353074D01*
X307964Y354539D02*
X329600D01*
X306500Y314484D02*
X307964Y313020D01*
X306500Y353074D02*
X307964Y354539D01*
Y313020D02*
X320000D01*
X337839Y340000D02*
X342839Y345000D01*
X327980Y340000D02*
X337839D01*
X320000Y347980D02*
X327980Y340000D01*
X376339Y340965D02*
Y349500D01*
X374874Y339500D02*
X376339Y340965D01*
X353376Y339500D02*
X374874D01*
X351911Y340965D02*
X353376Y339500D01*
X351911Y340965D02*
Y349500D01*
X456943Y400396D02*
X463500Y393839D01*
Y359500D02*
Y393839D01*
X441600Y337600D02*
X463500Y359500D01*
X441600Y266350D02*
Y337600D01*
X455339Y401016D02*
Y402000D01*
Y401016D02*
X455959Y400396D01*
X456943D01*
X463800Y325763D02*
Y349354D01*
Y325763D02*
X469500Y320063D01*
X463800Y349354D02*
X473900Y359454D01*
X470500Y360918D02*
Y402900D01*
Y360918D02*
X471965Y359454D01*
X470500Y402900D02*
X476900Y409300D01*
X471965Y359454D02*
X473900D01*
X580500Y281600D02*
Y363713D01*
X575000Y369213D02*
X580500Y363713D01*
X572500Y273600D02*
X580500Y281600D01*
X449104Y416936D02*
X449165D01*
X447500Y417000D02*
X449104Y416936D01*
X449165D02*
X460500Y416500D01*
X472500D01*
X447500Y417000D02*
X447656Y413777D01*
X434412Y410681D02*
X445720D01*
X447659Y412621D01*
X447656Y413777D02*
X447659Y413717D01*
X428000Y416500D02*
X433697Y411330D01*
X447659Y412621D02*
Y413717D01*
X433697Y411330D02*
X434412Y410681D01*
X324512Y136512D02*
Y173000D01*
X276407D02*
X277000Y172407D01*
X342218Y142604D02*
X342839Y141984D01*
Y141000D02*
Y141984D01*
X341234Y142604D02*
X342218D01*
X339282Y144557D02*
X341234Y142604D01*
X329124Y164783D02*
Y183776D01*
Y164783D02*
X329124Y163804D01*
X329788Y163086D02*
X335323Y157100D01*
X329124Y163804D02*
X329788Y163086D01*
X325500Y187400D02*
X329124Y183776D01*
X320500Y177012D02*
X324512Y173000D01*
X320500Y177012D02*
Y194500D01*
X294488Y150512D02*
X295000Y150000D01*
X294488Y150512D02*
Y173000D01*
X333964Y167166D02*
X336288D01*
X332500Y168630D02*
Y186500D01*
X340500Y194500D01*
X332500Y168630D02*
X333964Y167166D01*
X390500Y194500D02*
X438000Y242000D01*
X466949Y300449D02*
X467000Y300500D01*
X466949Y286496D02*
Y300449D01*
X320000Y270700D02*
Y313020D01*
X495000Y304000D02*
X495478Y303522D01*
Y289459D02*
Y303522D01*
Y289459D02*
X496098Y288839D01*
X497150D01*
X481500D02*
X489500Y296839D01*
Y307812D02*
X490965Y309276D01*
X489500Y296839D02*
Y307812D01*
X496250Y288839D02*
X497150D01*
X490965Y309276D02*
X500385D01*
X504500Y308500D02*
X518000Y295000D01*
X519464Y281161D02*
X525750D01*
X518000Y282626D02*
X519464Y281161D01*
X518000Y282626D02*
Y295000D01*
X510016Y281161D02*
X511000D01*
X457465Y279454D02*
X467000D01*
X473097D01*
X503611Y288839D02*
X511000D01*
X497400Y288850D02*
X503600D01*
X497150Y288839D02*
X497400Y288850D01*
X503600D02*
X503611Y288839D01*
X480880Y281782D02*
X481500Y281161D01*
X477218Y281782D02*
X480880D01*
X468188Y285359D02*
X473641D01*
X477218Y281782D01*
X467000Y286546D02*
X468188Y285359D01*
X456000Y280918D02*
X457465Y279454D01*
X463563Y320063D02*
X469500D01*
X456000Y312500D02*
X463563Y320063D01*
X456000Y280918D02*
Y312500D01*
X121500Y352500D02*
Y359000D01*
Y352500D02*
X212300Y261700D01*
X244050D01*
X269961Y255789D02*
X270500Y255250D01*
X267711Y255789D02*
X269961D01*
X246333Y277167D02*
X267711Y255789D01*
X244676Y277167D02*
X246333D01*
X244656Y277187D02*
X244676Y277167D01*
X243212Y277187D02*
X244656D01*
X259000Y150000D02*
X269961Y160961D01*
Y193961D01*
X359589Y349500D02*
Y443536D01*
X331065Y445000D02*
X358124D01*
X329600Y354539D02*
Y443536D01*
X331065Y445000D01*
X358124D02*
X359589Y443536D01*
X374500Y199500D02*
X375400D01*
X355500D02*
X374500D01*
X240000Y266900D02*
X247600D01*
X258332Y256656D02*
X259738Y255250D01*
X260500D01*
X247600Y266900D02*
X257844Y256656D01*
X258332D01*
X241500Y278899D02*
X243212Y277187D01*
X241500Y278899D02*
Y279000D01*
X275500Y252500D02*
Y257500D01*
Y252500D02*
X279800Y248200D01*
X254500Y276500D02*
X259500Y271500D01*
X261500D01*
X275500Y257500D01*
X254500Y276500D02*
Y314000D01*
X279800Y248200D02*
X343450D01*
X254500Y314000D02*
X324200Y383700D01*
X280500Y255250D02*
Y261000D01*
X262500Y279000D02*
X280500Y261000D01*
X272500Y279000D02*
X290500Y261000D01*
Y255250D02*
Y261000D01*
X282500Y279000D02*
X300500Y261000D01*
Y255250D02*
Y261000D01*
X249000Y150000D02*
X266000Y167000D01*
Y189000D01*
X260500Y194500D02*
X266000Y189000D01*
X269961Y193961D02*
X270500Y194500D01*
X295000Y150000D02*
X305500Y160500D01*
X335323Y151500D02*
X335943Y150880D01*
X337734Y146104D02*
X337964D01*
X335943Y147896D02*
Y150880D01*
Y147896D02*
X337734Y146104D01*
X337964D02*
X339282Y144786D01*
Y144557D02*
Y144786D01*
X375408Y175382D02*
Y198592D01*
X374500Y199500D02*
X375408Y198592D01*
X373500Y173475D02*
X375408Y175382D01*
X373500Y172500D02*
Y173475D01*
X532003Y363000D02*
Y437997D01*
X530539Y361536D02*
X532003Y363000D01*
X522858Y361536D02*
X530539D01*
X560500Y374500D02*
X565380Y369620D01*
X569593D02*
X570000Y369213D01*
X565380Y369620D02*
X569593D01*
X546000Y369213D02*
X551287Y374500D01*
X560500D01*
X336288Y167166D02*
X338000Y165454D01*
X342839Y326161D02*
Y345000D01*
X375500Y199400D02*
Y250250D01*
X350500Y194500D02*
X355500Y199500D01*
X570500Y345200D02*
Y361536D01*
X507144Y369213D02*
X520000D01*
X423600Y404900D02*
X428000Y400500D01*
X390000Y438500D02*
X423600Y404900D01*
X473900Y359454D02*
X477500D01*
X476900Y409300D02*
Y422100D01*
X472500Y426500D02*
X476900Y422100D01*
X416300Y378800D02*
X428000Y390500D01*
X416300Y311263D02*
Y378800D01*
Y311263D02*
X421000Y306563D01*
X556070Y348430D02*
Y359454D01*
Y348430D02*
X570000Y334500D01*
X132500Y359000D02*
X139500D01*
X146000Y365500D01*
X234407Y279000D02*
Y336297D01*
X245610Y347500D01*
X337600Y395239D02*
Y430500D01*
Y395239D02*
X342839Y390000D01*
Y349500D02*
Y390000D01*
X477500Y366546D02*
Y379800D01*
X324200Y383700D02*
Y460000D01*
X343450Y248200D02*
X350500Y255250D01*
X538572Y342572D02*
Y361536D01*
X534500Y338500D02*
X538572Y342572D01*
X329600Y354539D02*
X335161Y349500D01*
X520000Y369213D02*
X522858D01*
X514400Y363613D02*
X520000Y369213D01*
X514400Y348600D02*
Y363613D01*
Y348600D02*
X524500Y338500D01*
X507144Y345856D02*
Y361536D01*
Y345856D02*
X514500Y338500D01*
X292500Y279000D02*
X310500Y261000D01*
Y255250D02*
Y261000D01*
X244050Y261700D02*
X250500Y255250D01*
X235500Y177500D02*
X239500Y173500D01*
X235500Y177500D02*
Y250250D01*
X240500Y255250D01*
X249500Y173500D02*
Y185500D01*
X240500Y194500D02*
X249500Y185500D01*
X259500Y173500D02*
Y185500D01*
X250500Y194500D02*
X259500Y185500D01*
X289502Y145498D02*
X295000Y140000D01*
X289502Y145498D02*
Y183502D01*
X300500Y194500D01*
X353500Y172500D02*
Y187500D01*
X360500Y194500D01*
X370500Y179500D02*
Y194500D01*
X363500Y172500D02*
X370500Y179500D01*
X343000Y155000D02*
X349300Y161300D01*
X343000Y151500D02*
Y155000D01*
X335161Y135000D02*
Y141000D01*
Y135000D02*
X342061Y128100D01*
X359500D01*
X390500Y159100D01*
Y194500D01*
X141223Y370500D02*
X150500D01*
X137400Y366677D02*
X141223Y370500D01*
X132500Y366677D02*
X137400D01*
X368661Y349500D02*
Y438161D01*
X369000Y438500D01*
X390000D01*
X439000Y402000D02*
X447661D01*
X432500Y395500D02*
X439000Y402000D01*
X325500Y187400D02*
Y200000D01*
X320100Y205400D02*
X325500Y200000D01*
X310900Y205400D02*
X320100D01*
X305500Y200000D02*
X310900Y205400D01*
X305500Y160500D02*
Y200000D01*
X376339Y349500D02*
X377000Y390661D01*
X534400Y292500D02*
Y294800D01*
X530739Y288839D02*
X534400Y292500D01*
X525750Y288839D02*
X530739D01*
X534500Y303500D02*
Y308500D01*
Y303500D02*
X540500Y297500D01*
Y288839D02*
Y297500D01*
X501161Y308500D02*
X504500D01*
X500385Y309276D02*
X501161Y308500D01*
X570000Y361536D02*
X570500D01*
X570000Y369213D02*
X575000D01*
X548061Y273600D02*
X572500D01*
X540500Y281161D02*
X548061Y273600D01*
X234407Y272493D02*
X240000Y266900D01*
X234407Y272493D02*
Y279000D01*
X546454Y320454D02*
X550000D01*
X534500Y308500D02*
X546454Y320454D01*
X302500Y279000D02*
X320500Y261000D01*
Y255250D02*
Y261000D01*
X524500Y308500D02*
X543546Y327546D01*
X550000D01*
Y320454D02*
X555954D01*
X570000Y334500D01*
X338000Y182000D02*
X350500Y194500D01*
X367454Y268296D02*
Y279000D01*
Y268296D02*
X380500Y255250D01*
X342839Y326161D02*
X356500Y312500D01*
X367454Y301546D01*
Y279000D02*
Y301546D01*
X423600Y421500D02*
X432500D01*
X423600Y404900D02*
Y421500D01*
X430500Y255250D02*
X441600Y266350D01*
X330500Y255250D02*
Y260200D01*
X320000Y270700D02*
X330500Y260200D01*
X310500Y155500D02*
Y194500D01*
X305000Y150000D02*
X310500Y155500D01*
X338000Y172546D02*
Y182000D01*
X375400Y199500D02*
X375500Y199400D01*
Y250250D02*
X380500Y255250D01*
X342839Y345000D02*
Y349500D01*
X479300Y327937D02*
X480144Y327093D01*
X437900Y391000D02*
X447323D01*
X437400Y390500D02*
X437900Y391000D01*
X428000Y390500D02*
X437400D01*
X479763Y320000D02*
X490000D01*
X479700Y320063D02*
X479763Y320000D01*
X469500Y320063D02*
X479700D01*
X486911Y361536D02*
X491430D01*
X481900Y366546D02*
X486911Y361536D01*
X477500Y366546D02*
X481900D01*
X549811D02*
X556070D01*
X544800Y361536D02*
X549811Y366546D01*
X538572Y361536D02*
X544800D01*
X503077D02*
X507144D01*
X495400Y369213D02*
X503077Y361536D01*
X491430Y369213D02*
X495400D01*
X538572D02*
X546000D01*
X551677Y288839D02*
X555250D01*
X544000Y281161D02*
X551677Y288839D01*
X540500Y281161D02*
X544000D01*
X121500Y366677D02*
X132500D01*
X447661Y400139D02*
Y402000D01*
Y400139D02*
X455000Y392800D01*
Y391000D02*
Y392800D01*
X338000Y159777D02*
Y165454D01*
X335323Y157100D02*
X338000Y159777D01*
X335323Y151500D02*
Y157100D01*
X570000Y288839D02*
Y314500D01*
X566377Y288839D02*
X570000D01*
X558700Y281161D02*
X566377Y288839D01*
X555250Y281161D02*
X558700D01*
D55*
X219083Y329500D02*
Y345071D01*
X208980Y348000D02*
X216154D01*
X219083Y345071D01*
X174020Y348000D02*
Y359980D01*
X174236Y360197D01*
Y375665D01*
X447500Y424677D02*
Y462000D01*
X447000Y462500D02*
X447500Y462000D01*
X203764Y375665D02*
X208980Y370449D01*
Y348000D02*
Y370449D01*
X490000Y327093D02*
X493093D01*
X504500Y338500D01*
X374546Y271204D02*
Y279000D01*
Y271204D02*
X390500Y255250D01*
X259390Y347500D02*
Y391390D01*
X279500Y411500D01*
X374546Y279000D02*
Y304296D01*
X366343Y312500D02*
X374546Y304296D01*
X480144Y327093D02*
X490000D01*
X469500Y327937D02*
X479300D01*
D56*
X152000Y421771D02*
Y446500D01*
X136500Y406271D02*
X152000Y421771D01*
X190816Y407500D02*
X216000D01*
X235000Y426500D01*
X264500D01*
X184958Y413358D02*
X190816Y407500D01*
X184958Y413358D02*
Y430909D01*
X532003Y437997D02*
X534157Y435843D01*
X217903Y452903D02*
Y480239D01*
X203764Y435744D02*
Y438764D01*
X217903Y452903D01*
X185236Y431188D02*
Y444587D01*
X174236Y455587D02*
X185236Y444587D01*
X184904Y486097D02*
X212045D01*
X217903Y480239D01*
X174236Y475429D02*
X184904Y486097D01*
X184958Y430909D02*
X185236Y431188D01*
X168500Y409000D02*
Y430008D01*
X153000Y393500D02*
X168500Y409000D01*
Y430008D02*
X174236Y435744D01*
X122000Y399358D02*
Y463642D01*
X127858Y393500D02*
X153000D01*
X122000Y463642D02*
X128858Y470500D01*
X122000Y399358D02*
X127858Y393500D01*
X128858Y470500D02*
X136500D01*
X152000Y446500D02*
X161087Y455587D01*
X264500Y426500D02*
X279500Y441500D01*
X161087Y455587D02*
X174236D01*
D57*
X515000Y455000D02*
X532003Y437997D01*
X534157Y426271D02*
Y435843D01*
Y426271D02*
X594500D01*
X545000Y455000D02*
X549500Y450500D01*
X594500D01*
D58*
X588571Y406271D02*
X594500D01*
X570000Y387700D02*
X588571Y406271D01*
X570000Y369213D02*
Y387700D01*
D59*
X146000Y365500D02*
D03*
X150500Y370500D02*
D03*
X467500Y421500D02*
D03*
X472500Y426500D02*
D03*
X432500Y395500D02*
D03*
X428000Y390500D02*
D03*
X432500Y421500D02*
D03*
X428000Y416500D02*
D03*
D60*
X146000Y375500D02*
D03*
X472500Y416500D02*
D03*
X428000Y400500D02*
D03*
Y426500D02*
D03*
D61*
X511500Y190000D02*
D03*
X501500D02*
D03*
X511500Y200000D02*
D03*
X501500D02*
D03*
X511500Y210000D02*
D03*
X501500D02*
D03*
X511500Y220000D02*
D03*
X501500D02*
D03*
X511500Y230000D02*
D03*
D62*
X501500D02*
D03*
D63*
X594500Y426271D02*
D03*
Y470500D02*
D03*
X136500Y450500D02*
D03*
Y406271D02*
D03*
D64*
X594500D02*
D03*
Y450500D02*
D03*
X136500Y470500D02*
D03*
Y426271D02*
D03*
D65*
X346264Y312500D02*
D03*
X366343D02*
D03*
X356500D02*
D03*
D66*
X295000Y140000D02*
D03*
D67*
Y150000D02*
D03*
X305000Y140000D02*
D03*
X315000D02*
D03*
X305000Y150000D02*
D03*
X315000D02*
D03*
D68*
X503500Y282500D02*
D03*
X495000Y304000D02*
D03*
X467000Y300500D02*
D03*
X534400Y294800D02*
D03*
X570500Y345200D02*
D03*
M02*
