G04*
G04 #@! TF.GenerationSoftware,Altium Limited,Altium Designer,23.2.1 (34)*
G04*
G04 Layer_Color=65535*
%FSLAX25Y25*%
%MOIN*%
G70*
G04*
G04 #@! TF.SameCoordinates,D46152EC-C408-46DB-B0A5-B777A763C0D4*
G04*
G04*
G04 #@! TF.FilePolarity,Positive*
G04*
G01*
G75*
%ADD10C,0.00984*%
%ADD11C,0.00787*%
%ADD12C,0.00600*%
%ADD13C,0.00591*%
%ADD14C,0.01000*%
D10*
X146492Y382114D02*
G03*
X146492Y382114I-492J0D01*
G01*
X472992Y409886D02*
G03*
X472992Y409886I-492J0D01*
G01*
X428492Y407114D02*
G03*
X428492Y407114I-492J0D01*
G01*
Y433114D02*
G03*
X428492Y433114I-492J0D01*
G01*
X487992Y230000D02*
G03*
X487992Y230000I-492J0D01*
G01*
X324008Y278500D02*
G03*
X324008Y278500I-492J0D01*
G01*
X334157Y312500D02*
G03*
X334157Y312500I-492J0D01*
G01*
X505051Y301886D02*
G03*
X505051Y301886I-492J0D01*
G01*
X204157Y362968D02*
G03*
X204157Y362968I-492J0D01*
G01*
X430992Y260073D02*
G03*
X430992Y260073I-492J0D01*
G01*
D11*
X140744Y362886D02*
G03*
X140742Y378113I5257J7614D01*
G01*
X477757Y429114D02*
G03*
X477758Y413887I-5257J-7614D01*
G01*
X422744Y387886D02*
G03*
X422742Y403113I5257J7614D01*
G01*
X422744Y413886D02*
G03*
X422742Y429113I5257J7614D01*
G01*
X140744Y362887D02*
Y378113D01*
X196618Y342764D02*
Y353236D01*
X178646Y348000D02*
X181264D01*
X201736D02*
X204354D01*
X201736Y342488D02*
Y353512D01*
X181264D02*
X201736D01*
X181264Y342488D02*
Y353512D01*
Y342488D02*
X201736D01*
X551432Y356492D02*
Y369508D01*
X560708Y356492D02*
Y369508D01*
X525614Y364882D02*
Y365867D01*
X520102Y364882D02*
Y365867D01*
X484256Y284508D02*
Y285492D01*
X478744Y284508D02*
Y285492D01*
X477756Y413887D02*
Y429113D01*
X422744Y387887D02*
Y403113D01*
Y413887D02*
Y429113D01*
X572756Y364882D02*
Y365867D01*
X567244Y364882D02*
Y365867D01*
X490476Y249409D02*
X524295D01*
X490476Y170591D02*
Y249409D01*
Y170591D02*
X524295D01*
Y249409D01*
X578556Y396271D02*
Y436271D01*
X610445Y396271D02*
Y436271D01*
X578556Y396271D02*
X610445D01*
X578556Y436271D02*
X610445D01*
X578556Y440500D02*
Y480500D01*
X610445Y440500D02*
Y480500D01*
X578556Y440500D02*
X610445D01*
X578556Y480500D02*
X610445D01*
X326016Y273303D02*
Y283697D01*
Y273303D02*
X347984D01*
Y283697D01*
X326016D02*
X347984D01*
X336028Y301476D02*
X376972D01*
X336028Y331398D02*
X376972D01*
X336028Y301476D02*
Y331398D01*
X376972Y301476D02*
Y331398D01*
X471638Y276492D02*
Y289508D01*
X462362Y276492D02*
Y289508D01*
X493494Y284508D02*
Y285492D01*
X499006Y284508D02*
Y285492D01*
X508244Y284508D02*
Y285492D01*
X513756Y284508D02*
Y285492D01*
X499106Y303421D02*
Y343579D01*
Y303421D02*
X539894D01*
Y343579D01*
X499106D02*
X539894D01*
X522994Y284508D02*
Y285492D01*
X528506Y284508D02*
Y285492D01*
X537744Y284508D02*
Y285492D01*
X543256Y284508D02*
Y285492D01*
X567244Y284508D02*
Y285492D01*
X572756Y284508D02*
Y285492D01*
X552494Y284508D02*
Y285492D01*
X558006Y284508D02*
Y285492D01*
X212996Y329500D02*
X215146D01*
X177854D02*
X180004D01*
Y323496D02*
Y335504D01*
Y323496D02*
X212996D01*
Y335504D01*
X180004D02*
X212996D01*
X463594Y315535D02*
X475406D01*
X338669Y148744D02*
X339654D01*
X338669Y154256D02*
X339654D01*
X338508Y143756D02*
X339492D01*
X338508Y138244D02*
X339492D01*
X450669Y393756D02*
X451654D01*
X450669Y388244D02*
X451654D01*
X451008Y404756D02*
X451992D01*
X451008Y399244D02*
X451992D01*
X444744Y420346D02*
Y421331D01*
X450256Y420346D02*
Y421331D01*
X120555Y440500D02*
X152444D01*
X120555Y480500D02*
X152444D01*
X120555Y440500D02*
Y480500D01*
X152444Y440500D02*
Y480500D01*
X120555Y396272D02*
X152444D01*
X120555Y436272D02*
X152444D01*
X120555Y396272D02*
Y436272D01*
X152444Y396272D02*
Y436271D01*
X124256Y362346D02*
Y363331D01*
X118744Y362346D02*
Y363331D01*
X129744Y362346D02*
Y363331D01*
X135256Y362346D02*
Y363331D01*
X320591Y134705D02*
Y155295D01*
X289409D02*
X320591D01*
X289409Y134705D02*
X320591D01*
X289409D02*
Y155295D01*
X415094Y302035D02*
X426906D01*
X239409Y337657D02*
Y357343D01*
X164000Y366413D02*
Y480587D01*
X209177D02*
X214000D01*
X179650D02*
X198350D01*
X164000D02*
X168823D01*
X214000Y366413D02*
Y480587D01*
X164000Y366413D02*
X214000D01*
X355258Y352256D02*
X356242D01*
X355258Y346744D02*
X356242D01*
X338508Y352256D02*
X339492D01*
X338508Y346744D02*
X339492D01*
X314764Y325382D02*
X325236D01*
X320000Y340736D02*
Y343354D01*
Y317646D02*
Y320264D01*
X314488D02*
X325512D01*
Y340736D01*
X314488D02*
X325512D01*
X314488Y320264D02*
Y340736D01*
X372008Y352256D02*
X372992D01*
X372008Y346744D02*
X372992D01*
X504388Y364882D02*
Y365867D01*
X509900Y364882D02*
Y365867D01*
X535816Y364882D02*
Y365867D01*
X541328Y364882D02*
Y365867D01*
X488674Y364882D02*
Y365867D01*
X494186Y364882D02*
Y365867D01*
X482138Y356492D02*
Y369508D01*
X472862Y356492D02*
Y369508D01*
X485362Y317038D02*
Y330055D01*
X494638Y317038D02*
Y330055D01*
X554638Y317492D02*
Y330508D01*
X545362Y317492D02*
Y330508D01*
X388094Y302535D02*
X399906D01*
X342638Y162492D02*
Y175508D01*
X333362Y162492D02*
Y175508D01*
X364492Y283638D02*
X377508D01*
X364492Y274362D02*
X377508D01*
X231445Y283638D02*
X244462D01*
X231445Y274362D02*
X244462D01*
X437375Y231357D02*
Y247563D01*
X435407Y231357D02*
X437375D01*
X435407Y218393D02*
Y231357D01*
Y218393D02*
X437375D01*
Y202187D02*
Y218393D01*
X233625Y202187D02*
X437375D01*
X233625D02*
Y247563D01*
X437375D01*
X347752Y177500D02*
X379248D01*
X347752Y167500D02*
Y177500D01*
Y167500D02*
X379248D01*
Y177500D01*
X256752Y284000D02*
X308248D01*
X256752Y274000D02*
Y284000D01*
Y274000D02*
X308248D01*
Y284000D01*
X233252Y145000D02*
Y155000D01*
X274748D01*
Y145000D02*
Y155000D01*
X233252Y145000D02*
X274748D01*
X233752Y168500D02*
X265248D01*
Y178500D01*
X233752D02*
X265248D01*
X233752Y168500D02*
Y178500D01*
X300524Y176760D02*
X318476D01*
Y169240D02*
Y176760D01*
X300524Y169240D02*
X318476D01*
X300524D02*
Y176760D01*
X303594Y169634D02*
Y176366D01*
X298949Y173000D02*
X300524D01*
X318476D02*
X320051D01*
X273445Y168362D02*
X286462D01*
X273445Y177638D02*
X286462D01*
X565000Y308752D02*
Y340248D01*
Y308752D02*
X575000D01*
Y340248D01*
X565000D02*
X575000D01*
D12*
X402400Y430500D02*
G03*
X402400Y430500I-44800J0D01*
G01*
X239300Y398750D02*
G03*
X239300Y398750I-800J0D01*
G01*
X280300D02*
G03*
X280300Y398750I-800J0D01*
G01*
X429850Y462500D02*
G03*
X429850Y462500I-800J0D01*
G01*
X307300Y430500D02*
X312300D01*
X309800Y428000D02*
Y433000D01*
X242748Y443015D02*
Y454985D01*
Y428015D02*
Y439985D01*
Y415486D02*
Y424985D01*
X228748Y405750D02*
X242748D01*
X228748D02*
Y462250D01*
X242748D01*
Y405750D02*
Y407514D01*
Y458015D02*
Y462250D01*
X283748Y458015D02*
Y462250D01*
Y405750D02*
Y407514D01*
X269748Y462250D02*
X283748D01*
X269748Y405750D02*
Y462250D01*
Y405750D02*
X283748D01*
Y415486D02*
Y424985D01*
Y428015D02*
Y439985D01*
Y443015D02*
Y454985D01*
X436550Y468630D02*
X477450D01*
X436050Y454730D02*
X477950D01*
Y473630D01*
X436050D02*
X477950D01*
X436050Y454730D02*
Y473630D01*
X506750Y446900D02*
Y473100D01*
X553250Y446900D02*
Y473100D01*
X506750Y446900D02*
X553250D01*
X506750Y473100D02*
X553250D01*
X324477Y152542D02*
X323144Y151876D01*
X321811Y150543D01*
Y149210D01*
X322478Y148543D01*
X323810D01*
X324477Y149210D01*
Y149876D01*
X323810Y150543D01*
X321811D01*
X324477Y141912D02*
X321811D01*
Y139913D01*
X323144Y140579D01*
X323810D01*
X324477Y139913D01*
Y138580D01*
X323810Y137913D01*
X322478D01*
X321811Y138580D01*
X288099Y148543D02*
X285433D01*
X288099Y151209D01*
Y151876D01*
X287432Y152542D01*
X286100D01*
X285433Y151876D01*
X286614Y137913D02*
X287947D01*
X287281D01*
Y141912D01*
X286614Y141246D01*
D13*
X480327Y324000D02*
G03*
X480327Y324000I-10827J0D01*
G01*
X431827Y310500D02*
G03*
X431827Y310500I-10827J0D01*
G01*
X269232Y347500D02*
G03*
X269232Y347500I-16732J0D01*
G01*
X404827Y311000D02*
G03*
X404827Y311000I-10827J0D01*
G01*
D14*
X489002Y272001D02*
Y276999D01*
X491501D01*
X492334Y276166D01*
Y274500D01*
X491501Y273667D01*
X489002D01*
X490668D02*
X492334Y272001D01*
X494000D02*
X495667D01*
X494834D01*
Y276999D01*
X494000Y276166D01*
X501498Y272001D02*
X498166D01*
X501498Y275333D01*
Y276166D01*
X500665Y276999D01*
X498999D01*
X498166Y276166D01*
X120201Y226481D02*
X120181Y220483D01*
X123180Y220473D01*
X124183Y221469D01*
X124197Y225468D01*
X123200Y226471D01*
X120201Y226481D01*
X129178Y220453D02*
X127179Y220460D01*
X126182Y221462D01*
X126189Y223462D01*
X127192Y224458D01*
X129192Y224451D01*
X130188Y223448D01*
X130184Y222448D01*
X126186Y222462D01*
X132177Y220442D02*
X135176Y220432D01*
X136179Y221428D01*
X135183Y222431D01*
X133183Y222438D01*
X132187Y223441D01*
X133190Y224438D01*
X136189Y224427D01*
X138175Y220422D02*
X140174Y220415D01*
X139175Y220419D01*
X139188Y224417D01*
X138189Y224421D01*
X145166Y218399D02*
X146166Y218395D01*
X147169Y219391D01*
X147186Y224390D01*
X144187Y224400D01*
X143184Y223404D01*
X143177Y221405D01*
X144173Y220402D01*
X147172Y220391D01*
X149171Y220384D02*
X149185Y224383D01*
X152184Y224373D01*
X153180Y223370D01*
X153170Y220371D01*
X158168Y220354D02*
X156169Y220360D01*
X155173Y221364D01*
X155180Y223363D01*
X156183Y224359D01*
X158182Y224352D01*
X159178Y223349D01*
X159175Y222350D01*
X155176Y222363D01*
X165187Y226328D02*
X165166Y220330D01*
X162167Y220340D01*
X161171Y221343D01*
X161178Y223342D01*
X162181Y224339D01*
X165180Y224328D01*
X173184Y226301D02*
X173163Y220303D01*
X176162Y220292D01*
X177165Y221288D01*
X177169Y222288D01*
X177172Y223288D01*
X176176Y224291D01*
X173177Y224301D01*
X179175Y224281D02*
X179165Y221282D01*
X180161Y220279D01*
X183160Y220268D01*
X183157Y219269D01*
X182154Y218272D01*
X181154Y218276D01*
X183160Y220268D02*
X183174Y224267D01*
X191171Y224240D02*
X192171Y224236D01*
X192167Y223237D01*
X191168Y223240D01*
X191171Y224240D01*
X191161Y221241D02*
X192160Y221237D01*
X192157Y220238D01*
X191157Y220241D01*
X191161Y221241D01*
X124160Y214871D02*
X122161Y214878D01*
X123161Y214874D01*
X123144Y209876D01*
X122141Y208880D01*
X121141Y208883D01*
X120145Y209886D01*
X127139Y208862D02*
X129138Y208856D01*
X130141Y209852D01*
X130148Y211851D01*
X129152Y212854D01*
X127153Y212861D01*
X126149Y211865D01*
X126143Y209866D01*
X127139Y208862D01*
X132137Y208845D02*
X132151Y212844D01*
X135150Y212834D01*
X136146Y211831D01*
X136136Y208832D01*
X139149Y212820D02*
X141148Y212813D01*
X142144Y211810D01*
X142134Y208811D01*
X139135Y208822D01*
X138139Y209825D01*
X139142Y210821D01*
X142141Y210811D01*
X144133Y208804D02*
X147132Y208794D01*
X148135Y209790D01*
X147139Y210794D01*
X145140Y210800D01*
X144144Y211804D01*
X145147Y212800D01*
X148146Y212790D01*
X156150Y214762D02*
X156136Y210763D01*
X158129Y208757D01*
X160135Y210749D01*
X160149Y214748D01*
X163141Y212738D02*
X165140Y212732D01*
X166136Y211729D01*
X166126Y208729D01*
X163127Y208740D01*
X162131Y209743D01*
X163134Y210739D01*
X166133Y210729D01*
X168125Y208723D02*
X168139Y212721D01*
X171138Y212711D01*
X172134Y211708D01*
X172124Y208709D01*
X174144Y214700D02*
X174124Y208702D01*
X174134Y211701D01*
X175137Y212697D01*
X177136Y212691D01*
X178132Y211687D01*
X178122Y208688D01*
X180135Y212680D02*
X180125Y209681D01*
X181121Y208678D01*
X184120Y208668D01*
X184134Y212667D01*
X186119Y208661D02*
X188119Y208654D01*
X187119Y208658D01*
X187140Y214656D01*
X186140Y214659D01*
X191118Y208644D02*
X194117Y208634D01*
X195120Y209630D01*
X194124Y210633D01*
X192124Y210640D01*
X191128Y211643D01*
X192131Y212639D01*
X195130Y212629D01*
X198133Y213619D02*
X198129Y212619D01*
X197130Y212622D01*
X199129Y212615D01*
X198129Y212619D01*
X198119Y209620D01*
X199115Y208617D01*
X120108Y199289D02*
X120129Y205287D01*
X123128Y205276D01*
X124124Y204274D01*
X124117Y202274D01*
X123114Y201278D01*
X120115Y201288D01*
X126127Y205266D02*
X130105Y199255D01*
X130126Y205253D02*
X126107Y199268D01*
X132125Y205246D02*
X132105Y199248D01*
X136103Y199234D01*
X138113Y202226D02*
X142112Y202213D01*
X144121Y205205D02*
X144101Y199207D01*
X144111Y202206D01*
X148109Y202192D01*
X148120Y205191D01*
X148099Y199193D01*
X151112Y203182D02*
X153111Y203175D01*
X154107Y202172D01*
X154097Y199173D01*
X151098Y199183D01*
X150102Y200186D01*
X151105Y201182D01*
X154104Y201172D01*
X156097Y199166D02*
X159096Y199156D01*
X160099Y200152D01*
X159102Y201155D01*
X157103Y201162D01*
X156107Y202165D01*
X157110Y203161D01*
X160109Y203151D01*
X162095Y199145D02*
X165094Y199135D01*
X166097Y200132D01*
X165101Y201135D01*
X163101Y201141D01*
X162105Y202145D01*
X163108Y203141D01*
X166107Y203131D01*
X171092Y199115D02*
X169092Y199122D01*
X168096Y200125D01*
X168103Y202124D01*
X169106Y203120D01*
X171105Y203113D01*
X172102Y202110D01*
X172098Y201111D01*
X168099Y201124D01*
X174091Y199104D02*
X176090Y199098D01*
X175090Y199101D01*
X175111Y205099D01*
X174111Y205102D01*
X180106Y204082D02*
X180102Y203083D01*
X179103Y203086D01*
X181102Y203079D01*
X180102Y203083D01*
X180092Y200084D01*
X181088Y199081D01*
X120076Y189691D02*
X122075Y189684D01*
X121075Y189688D01*
X121096Y195686D01*
X120093Y194690D01*
X135091Y195638D02*
X131093Y195652D01*
X131072Y189654D01*
X135071Y189640D01*
X131082Y192653D02*
X133082Y192646D01*
X137070Y189633D02*
X139069Y189626D01*
X138070Y189630D01*
X138090Y195628D01*
X137091Y195631D01*
X145068Y189606D02*
X143068Y189613D01*
X142072Y190616D01*
X142079Y192615D01*
X143082Y193611D01*
X145081Y193605D01*
X146077Y192601D01*
X146074Y191602D01*
X142075Y191615D01*
X152079Y193581D02*
X149080Y193591D01*
X148077Y192595D01*
X148070Y190595D01*
X149066Y189592D01*
X152065Y189582D01*
X155081Y194570D02*
X155078Y193570D01*
X154078Y193574D01*
X156078Y193567D01*
X155078Y193570D01*
X155068Y190571D01*
X156064Y189568D01*
X159076Y193557D02*
X159063Y189558D01*
X159070Y191557D01*
X160073Y192554D01*
X161076Y193550D01*
X162075Y193546D01*
X166061Y189534D02*
X168060Y189527D01*
X169063Y190524D01*
X169070Y192523D01*
X168074Y193526D01*
X166074Y193533D01*
X165071Y192537D01*
X165064Y190537D01*
X166061Y189534D01*
X171059Y189517D02*
X171073Y193516D01*
X174072Y193506D01*
X175068Y192502D01*
X175058Y189504D01*
X177057Y189497D02*
X179056Y189490D01*
X178057Y189493D01*
X178070Y193492D01*
X177071Y193495D01*
X186068Y193465D02*
X183069Y193475D01*
X182066Y192479D01*
X182059Y190479D01*
X183055Y189476D01*
X186054Y189466D01*
X188053Y189459D02*
X191052Y189449D01*
X192055Y190445D01*
X191059Y191448D01*
X189060Y191455D01*
X188064Y192458D01*
X189067Y193454D01*
X192066Y193444D01*
X194062Y192438D02*
X198060Y192424D01*
X200070Y195416D02*
X202069Y195409D01*
X201069Y195413D01*
X201049Y189415D01*
X200049Y189418D01*
X202049Y189411D01*
X209064Y194386D02*
X208067Y195389D01*
X206068Y195396D01*
X205065Y194399D01*
X205051Y190401D01*
X206047Y189398D01*
X208047Y189391D01*
X209050Y190387D01*
X211066Y195379D02*
X215065Y195365D01*
X213066Y195372D01*
X213045Y189374D01*
X124026Y175481D02*
X123030Y176484D01*
X121030Y176490D01*
X120027Y175494D01*
X120024Y174495D01*
X121020Y173492D01*
X123020Y173485D01*
X124016Y172482D01*
X124012Y171482D01*
X123009Y170486D01*
X121010Y170492D01*
X120014Y171496D01*
X127008Y170472D02*
X129007Y170465D01*
X130010Y171461D01*
X130017Y173461D01*
X129021Y174464D01*
X127022Y174471D01*
X126019Y173475D01*
X126012Y171475D01*
X127008Y170472D01*
X132006Y170455D02*
X134006Y170448D01*
X133006Y170452D01*
X133026Y176450D01*
X132027Y176453D01*
X141024Y176422D02*
X141003Y170424D01*
X138004Y170434D01*
X137008Y171438D01*
X137015Y173437D01*
X138018Y174433D01*
X141017Y174423D01*
X146002Y170407D02*
X144002Y170414D01*
X143006Y171417D01*
X143013Y173416D01*
X144016Y174413D01*
X146015Y174406D01*
X147012Y173403D01*
X147008Y172403D01*
X143009Y172417D01*
X149014Y174396D02*
X149001Y170397D01*
X149007Y172396D01*
X150011Y173393D01*
X151014Y174389D01*
X152013Y174385D01*
X154999Y170377D02*
X156998Y170370D01*
X155998Y170373D01*
X156012Y174372D01*
X155012Y174375D01*
X159997Y170359D02*
X160011Y174358D01*
X163010Y174348D01*
X164006Y173345D01*
X163996Y170346D01*
X167988Y168333D02*
X168987Y168329D01*
X169990Y169326D01*
X170007Y174324D01*
X167008Y174334D01*
X166005Y173338D01*
X165998Y171339D01*
X166995Y170336D01*
X169994Y170325D01*
X178012Y176296D02*
X180011Y176289D01*
X179011Y176293D01*
X178991Y170295D01*
X177991Y170298D01*
X179990Y170291D01*
X183003Y174280D02*
X182990Y170281D01*
X182996Y172280D01*
X183999Y173277D01*
X185003Y174273D01*
X186002Y174269D01*
X189987Y170257D02*
X191987Y170250D01*
X192990Y171247D01*
X192996Y173246D01*
X192000Y174249D01*
X190001Y174256D01*
X188998Y173259D01*
X188991Y171260D01*
X189987Y170257D01*
X194985Y170240D02*
X194999Y174239D01*
X197998Y174229D01*
X198995Y173225D01*
X198984Y170226D01*
X217700Y483198D02*
Y477200D01*
X220699D01*
X221699Y478200D01*
Y479199D01*
X220699Y480199D01*
X217700D01*
X220699D01*
X221699Y481199D01*
Y482198D01*
X220699Y483198D01*
X217700D01*
X223698Y477200D02*
X225697D01*
X224698D01*
Y483198D01*
X223698Y482198D01*
X258700Y483198D02*
Y477200D01*
X261699D01*
X262699Y478200D01*
Y479199D01*
X261699Y480199D01*
X258700D01*
X261699D01*
X262699Y481199D01*
Y482198D01*
X261699Y483198D01*
X258700D01*
X268697Y477200D02*
X264698D01*
X268697Y481199D01*
Y482198D01*
X267697Y483198D01*
X265698D01*
X264698Y482198D01*
X463800Y440198D02*
X467799D01*
X465799D01*
Y434200D01*
X473797Y440198D02*
X469798D01*
Y437199D01*
X471797Y438199D01*
X472797D01*
X473797Y437199D01*
Y435200D01*
X472797Y434200D01*
X470798D01*
X469798Y435200D01*
X425002Y383999D02*
X429000D01*
X427001D01*
Y378001D01*
X433999D02*
Y383999D01*
X431000Y381000D01*
X434998D01*
X424502Y441999D02*
X428500D01*
X426501D01*
Y436001D01*
X434498D02*
X430500D01*
X434498Y440000D01*
Y440999D01*
X433499Y441999D01*
X431499D01*
X430500Y440999D01*
X144001Y358999D02*
X148000D01*
X146001D01*
Y353001D01*
X149999D02*
X151999D01*
X150999D01*
Y358999D01*
X149999Y357999D01*
X164200Y484400D02*
Y490398D01*
X167199D01*
X168199Y489398D01*
Y487399D01*
X167199Y486399D01*
X164200D01*
X166199D02*
X168199Y484400D01*
X174197Y490398D02*
X170198D01*
Y484400D01*
X174197D01*
X170198Y487399D02*
X172197D01*
X176196Y484400D02*
X178196D01*
X177196D01*
Y490398D01*
X176196Y489398D01*
X348164Y149001D02*
Y154999D01*
X351163D01*
X352163Y153999D01*
Y152000D01*
X351163Y151000D01*
X348164D01*
X350163D02*
X352163Y149001D01*
X358161D02*
X354162D01*
X358161Y153000D01*
Y153999D01*
X357161Y154999D01*
X355162D01*
X354162Y153999D01*
X364159Y149001D02*
X360160D01*
X364159Y153000D01*
Y153999D01*
X363159Y154999D01*
X361160D01*
X360160Y153999D01*
X347002Y138001D02*
Y143999D01*
X350001D01*
X351001Y142999D01*
Y141000D01*
X350001Y140000D01*
X347002D01*
X349002D02*
X351001Y138001D01*
X356999D02*
X353000D01*
X356999Y142000D01*
Y142999D01*
X355999Y143999D01*
X354000D01*
X353000Y142999D01*
X358998Y138001D02*
X360998D01*
X359998D01*
Y143999D01*
X358998Y142999D01*
X459503Y388501D02*
Y394499D01*
X462502D01*
X463501Y393499D01*
Y391500D01*
X462502Y390500D01*
X459503D01*
X461502D02*
X463501Y388501D01*
X469499D02*
X465501D01*
X469499Y392500D01*
Y393499D01*
X468500Y394499D01*
X466500D01*
X465501Y393499D01*
X471499D02*
X472498Y394499D01*
X474498D01*
X475497Y393499D01*
Y389501D01*
X474498Y388501D01*
X472498D01*
X471499Y389501D01*
Y393499D01*
X460164Y399501D02*
Y405499D01*
X463163D01*
X464163Y404499D01*
Y402500D01*
X463163Y401500D01*
X460164D01*
X462163D02*
X464163Y399501D01*
X466162D02*
X468161D01*
X467162D01*
Y405499D01*
X466162Y404499D01*
X471160Y400501D02*
X472160Y399501D01*
X474159D01*
X475159Y400501D01*
Y404499D01*
X474159Y405499D01*
X472160D01*
X471160Y404499D01*
Y403500D01*
X472160Y402500D01*
X475159D01*
X458499Y413341D02*
X452501D01*
Y416340D01*
X453501Y417340D01*
X455500D01*
X456500Y416340D01*
Y413341D01*
Y415340D02*
X458499Y417340D01*
Y419339D02*
Y421338D01*
Y420339D01*
X452501D01*
X453501Y419339D01*
Y424337D02*
X452501Y425337D01*
Y427337D01*
X453501Y428336D01*
X454500D01*
X455500Y427337D01*
X456500Y428336D01*
X457499D01*
X458499Y427337D01*
Y425337D01*
X457499Y424337D01*
X456500D01*
X455500Y425337D01*
X454500Y424337D01*
X453501D01*
X455500Y425337D02*
Y427337D01*
X367000Y356100D02*
Y362098D01*
X369999D01*
X370999Y361098D01*
Y359099D01*
X369999Y358099D01*
X367000D01*
X368999D02*
X370999Y356100D01*
X372998D02*
X374997D01*
X373998D01*
Y362098D01*
X372998Y361098D01*
X377996Y362098D02*
X381995D01*
Y361098D01*
X377996Y357100D01*
Y356100D01*
X576002Y282001D02*
Y287999D01*
X579002D01*
X580001Y286999D01*
Y285000D01*
X579002Y284000D01*
X576002D01*
X578002D02*
X580001Y282001D01*
X582000D02*
X584000D01*
X583000D01*
Y287999D01*
X582000Y286999D01*
X590998Y287999D02*
X588998Y286999D01*
X586999Y285000D01*
Y283001D01*
X587998Y282001D01*
X589998D01*
X590998Y283001D01*
Y284000D01*
X589998Y285000D01*
X586999D01*
X505752Y271501D02*
Y276499D01*
X508251D01*
X509084Y275666D01*
Y274000D01*
X508251Y273167D01*
X505752D01*
X507418D02*
X509084Y271501D01*
X510750D02*
X512417D01*
X511584D01*
Y276499D01*
X510750Y275666D01*
X518248Y276499D02*
X514916D01*
Y274000D01*
X516582Y274833D01*
X517415D01*
X518248Y274000D01*
Y272334D01*
X517415Y271501D01*
X515749D01*
X514916Y272334D01*
X474225Y294069D02*
X474279Y297068D01*
X475778Y297040D01*
X476269Y296532D01*
X476251Y295532D01*
X475742Y295041D01*
X474243Y295069D01*
X475242Y295051D02*
X476224Y294033D01*
X477223Y294014D02*
X478223Y293996D01*
X477723Y294005D01*
X477777Y297004D01*
X477269Y296513D01*
X481221Y293941D02*
X481276Y296940D01*
X479749Y295468D01*
X481748Y295432D01*
X574002Y373501D02*
Y379499D01*
X577001D01*
X578001Y378499D01*
Y376500D01*
X577001Y375500D01*
X574002D01*
X576002D02*
X578001Y373501D01*
X580000D02*
X582000D01*
X581000D01*
Y379499D01*
X580000Y378499D01*
X584999D02*
X585998Y379499D01*
X587998D01*
X588998Y378499D01*
Y377500D01*
X587998Y376500D01*
X586998D01*
X587998D01*
X588998Y375500D01*
Y374501D01*
X587998Y373501D01*
X585998D01*
X584999Y374501D01*
X522252Y271340D02*
Y277338D01*
X525251D01*
X526251Y276338D01*
Y274339D01*
X525251Y273339D01*
X522252D01*
X524252D02*
X526251Y271340D01*
X528250D02*
X530250D01*
X529250D01*
Y277338D01*
X528250Y276338D01*
X533249Y271340D02*
X535248D01*
X534248D01*
Y277338D01*
X533249Y276338D01*
X129501Y387336D02*
X135499D01*
Y384337D01*
X134499Y383337D01*
X132500D01*
X131500Y384337D01*
Y387336D01*
Y385337D02*
X129501Y383337D01*
Y381338D02*
Y379339D01*
Y380338D01*
X135499D01*
X134499Y381338D01*
Y376340D02*
X135499Y375340D01*
Y373341D01*
X134499Y372341D01*
X130501D01*
X129501Y373341D01*
Y375340D01*
X130501Y376340D01*
X134499D01*
X537502Y271001D02*
Y276999D01*
X540501D01*
X541500Y275999D01*
Y274000D01*
X540501Y273000D01*
X537502D01*
X539501D02*
X541500Y271001D01*
X543500Y272001D02*
X544499Y271001D01*
X546499D01*
X547498Y272001D01*
Y275999D01*
X546499Y276999D01*
X544499D01*
X543500Y275999D01*
Y275000D01*
X544499Y274000D01*
X547498D01*
X517002Y374501D02*
Y380499D01*
X520001D01*
X521000Y379499D01*
Y377500D01*
X520001Y376500D01*
X517002D01*
X519001D02*
X521000Y374501D01*
X523000Y379499D02*
X523999Y380499D01*
X525999D01*
X526998Y379499D01*
Y378500D01*
X525999Y377500D01*
X526998Y376500D01*
Y375501D01*
X525999Y374501D01*
X523999D01*
X523000Y375501D01*
Y376500D01*
X523999Y377500D01*
X523000Y378500D01*
Y379499D01*
X523999Y377500D02*
X525999D01*
X118501Y383337D02*
X124499D01*
Y380338D01*
X123499Y379338D01*
X121500D01*
X120500Y380338D01*
Y383337D01*
Y381338D02*
X118501Y379338D01*
X124499Y377339D02*
Y373340D01*
X123499D01*
X119501Y377339D01*
X118501D01*
X333500Y356100D02*
Y362098D01*
X336499D01*
X337499Y361098D01*
Y359099D01*
X336499Y358099D01*
X333500D01*
X335499D02*
X337499Y356100D01*
X343497Y362098D02*
X341497Y361098D01*
X339498Y359099D01*
Y357100D01*
X340498Y356100D01*
X342497D01*
X343497Y357100D01*
Y358099D01*
X342497Y359099D01*
X339498D01*
X488830Y374874D02*
Y380873D01*
X491829D01*
X492829Y379873D01*
Y377873D01*
X491829Y376874D01*
X488830D01*
X490830D02*
X492829Y374874D01*
X498827Y380873D02*
X494828D01*
Y377873D01*
X496828Y378873D01*
X497827D01*
X498827Y377873D01*
Y375874D01*
X497827Y374874D01*
X495828D01*
X494828Y375874D01*
X535972Y374874D02*
Y380873D01*
X538971D01*
X539971Y379873D01*
Y377873D01*
X538971Y376874D01*
X535972D01*
X537971D02*
X539971Y374874D01*
X544969D02*
Y380873D01*
X541970Y377873D01*
X545969D01*
X350211Y356100D02*
Y362098D01*
X353210D01*
X354210Y361098D01*
Y359099D01*
X353210Y358099D01*
X350211D01*
X352211D02*
X354210Y356100D01*
X356209Y361098D02*
X357209Y362098D01*
X359208D01*
X360208Y361098D01*
Y360099D01*
X359208Y359099D01*
X358209D01*
X359208D01*
X360208Y358099D01*
Y357100D01*
X359208Y356100D01*
X357209D01*
X356209Y357100D01*
X552252Y271001D02*
Y276999D01*
X555251D01*
X556250Y275999D01*
Y274000D01*
X555251Y273000D01*
X552252D01*
X554251D02*
X556250Y271001D01*
X562248D02*
X558250D01*
X562248Y275000D01*
Y275999D01*
X561249Y276999D01*
X559249D01*
X558250Y275999D01*
X504544Y374874D02*
Y380873D01*
X507543D01*
X508543Y379873D01*
Y377873D01*
X507543Y376874D01*
X504544D01*
X506543D02*
X508543Y374874D01*
X510542D02*
X512541D01*
X511542D01*
Y380873D01*
X510542Y379873D01*
X425000Y488600D02*
Y494598D01*
X426999Y492599D01*
X428999Y494598D01*
Y488600D01*
X433997Y494598D02*
X431998D01*
X430998Y493598D01*
Y489600D01*
X431998Y488600D01*
X433997D01*
X434997Y489600D01*
Y493598D01*
X433997Y494598D01*
X440995Y493598D02*
X439995Y494598D01*
X437996D01*
X436996Y493598D01*
Y492599D01*
X437996Y491599D01*
X439995D01*
X440995Y490599D01*
Y489600D01*
X439995Y488600D01*
X437996D01*
X436996Y489600D01*
X446993Y494598D02*
X442994D01*
Y491599D01*
X444993D01*
X442994D01*
Y488600D01*
X452991Y494598D02*
X448992D01*
Y488600D01*
X452991D01*
X448992Y491599D02*
X450992D01*
X454990Y494598D02*
X458989D01*
X456990D01*
Y488600D01*
X466986D02*
X468986D01*
X467986D01*
Y494598D01*
X466986Y493598D01*
X495800Y494098D02*
Y488100D01*
X499799D01*
X505797D02*
X501798D01*
X505797Y492099D01*
Y493098D01*
X504797Y494098D01*
X502798D01*
X501798Y493098D01*
X172501Y320499D02*
Y314501D01*
X176500D01*
X178499D02*
X180499D01*
X179499D01*
Y320499D01*
X178499Y319499D01*
X471502Y253499D02*
Y247501D01*
Y249500D01*
X475501Y253499D01*
X472502Y250500D01*
X475501Y247501D01*
X477500D02*
X479500D01*
X478500D01*
Y253499D01*
X477500Y252499D01*
X486498Y247501D02*
X482499D01*
X486498Y251500D01*
Y252499D01*
X485498Y253499D01*
X483498D01*
X482499Y252499D01*
X304502Y132999D02*
Y127001D01*
Y129000D01*
X308501Y132999D01*
X305502Y130000D01*
X308501Y127001D01*
X310500D02*
X312499D01*
X311500D01*
Y132999D01*
X310500Y131999D01*
X315498Y127001D02*
X317498D01*
X316498D01*
Y132999D01*
X315498Y131999D01*
X347800Y187498D02*
Y181500D01*
Y183499D01*
X351799Y187498D01*
X348800Y184499D01*
X351799Y181500D01*
X353798D02*
X355797D01*
X354798D01*
Y187498D01*
X353798Y186498D01*
X358796D02*
X359796Y187498D01*
X361795D01*
X362795Y186498D01*
Y182500D01*
X361795Y181500D01*
X359796D01*
X358796Y182500D01*
Y186498D01*
X256800Y293998D02*
Y288000D01*
Y289999D01*
X260799Y293998D01*
X257800Y290999D01*
X260799Y288000D01*
X262798Y289000D02*
X263798Y288000D01*
X265797D01*
X266797Y289000D01*
Y292998D01*
X265797Y293998D01*
X263798D01*
X262798Y292998D01*
Y291999D01*
X263798Y290999D01*
X266797D01*
X589500Y481298D02*
Y475300D01*
Y477299D01*
X593499Y481298D01*
X590500Y478299D01*
X593499Y475300D01*
X595498Y480298D02*
X596498Y481298D01*
X598497D01*
X599497Y480298D01*
Y479299D01*
X598497Y478299D01*
X599497Y477299D01*
Y476300D01*
X598497Y475300D01*
X596498D01*
X595498Y476300D01*
Y477299D01*
X596498Y478299D01*
X595498Y479299D01*
Y480298D01*
X596498Y478299D02*
X598497D01*
X565000Y350198D02*
Y344200D01*
Y346199D01*
X568999Y350198D01*
X566000Y347199D01*
X568999Y344200D01*
X570998Y350198D02*
X574997D01*
Y349198D01*
X570998Y345200D01*
Y344200D01*
X233300Y164998D02*
Y159000D01*
Y160999D01*
X237299Y164998D01*
X234300Y161999D01*
X237299Y159000D01*
X243297Y164998D02*
X241297Y163998D01*
X239298Y161999D01*
Y160000D01*
X240298Y159000D01*
X242297D01*
X243297Y160000D01*
Y160999D01*
X242297Y161999D01*
X239298D01*
X315300Y303898D02*
Y297900D01*
Y299899D01*
X319299Y303898D01*
X316300Y300899D01*
X319299Y297900D01*
X325297Y303898D02*
X321298D01*
Y300899D01*
X323297Y301899D01*
X324297D01*
X325297Y300899D01*
Y298900D01*
X324297Y297900D01*
X322298D01*
X321298Y298900D01*
X233800Y188498D02*
Y182500D01*
Y184499D01*
X237799Y188498D01*
X234800Y185499D01*
X237799Y182500D01*
X242797D02*
Y188498D01*
X239798Y185499D01*
X243797D01*
X612002Y419770D02*
Y413772D01*
Y415772D01*
X616000Y419770D01*
X613001Y416771D01*
X616000Y413772D01*
X618000Y418771D02*
X618999Y419770D01*
X620999D01*
X621998Y418771D01*
Y417771D01*
X620999Y416771D01*
X619999D01*
X620999D01*
X621998Y415772D01*
Y414772D01*
X620999Y413772D01*
X618999D01*
X618000Y414772D01*
X117498Y461001D02*
Y466999D01*
Y465000D01*
X113500Y461001D01*
X116499Y464000D01*
X113500Y466999D01*
X107502D02*
X111500D01*
X107502Y463000D01*
Y462001D01*
X108501Y461001D01*
X110501D01*
X111500Y462001D01*
X117999Y415772D02*
Y421770D01*
Y419771D01*
X114000Y415772D01*
X116999Y418771D01*
X114000Y421770D01*
X112001D02*
X110001D01*
X111001D01*
Y415772D01*
X112001Y416772D01*
X231000Y270098D02*
X232999D01*
X232000D01*
Y264100D01*
X231000D01*
X232999D01*
X239997Y269098D02*
X238997Y270098D01*
X236998D01*
X235998Y269098D01*
Y265100D01*
X236998Y264100D01*
X238997D01*
X239997Y265100D01*
X241996Y269098D02*
X242996Y270098D01*
X244995D01*
X245995Y269098D01*
Y268099D01*
X244995Y267099D01*
X243996D01*
X244995D01*
X245995Y266099D01*
Y265100D01*
X244995Y264100D01*
X242996D01*
X241996Y265100D01*
X498008Y353499D02*
X500008D01*
X499008D01*
Y347501D01*
X498008D01*
X500008D01*
X507005Y352499D02*
X506006Y353499D01*
X504006D01*
X503007Y352499D01*
Y348500D01*
X504006Y347501D01*
X506006D01*
X507005Y348500D01*
X513003Y347501D02*
X509005D01*
X513003Y351499D01*
Y352499D01*
X512004Y353499D01*
X510004D01*
X509005Y352499D01*
X524000Y353499D02*
X522001D01*
X521001Y352499D01*
Y348500D01*
X522001Y347501D01*
X524000D01*
X525000Y348500D01*
Y352499D01*
X524000Y353499D01*
X526999Y345501D02*
Y351499D01*
X529998D01*
X530998Y350500D01*
Y348500D01*
X529998Y347501D01*
X526999D01*
X533997Y351499D02*
X535996D01*
X536996Y350500D01*
Y347501D01*
X533997D01*
X532997Y348500D01*
X533997Y349500D01*
X536996D01*
X538995Y347501D02*
Y351499D01*
X539995D01*
X540994Y350500D01*
Y347501D01*
Y350500D01*
X541994Y351499D01*
X542994Y350500D01*
Y347501D01*
X544993Y345501D02*
Y351499D01*
X547992D01*
X548992Y350500D01*
Y348500D01*
X547992Y347501D01*
X544993D01*
X333700Y340898D02*
X335699D01*
X334700D01*
Y334900D01*
X333700D01*
X335699D01*
X342697Y339898D02*
X341697Y340898D01*
X339698D01*
X338698Y339898D01*
Y335900D01*
X339698Y334900D01*
X341697D01*
X342697Y335900D01*
X344696Y334900D02*
X346696D01*
X345696D01*
Y340898D01*
X344696Y339898D01*
X292300Y186498D02*
Y180500D01*
X295299D01*
X296299Y181500D01*
Y185498D01*
X295299Y186498D01*
X292300D01*
X298298Y185498D02*
X299298Y186498D01*
X301297D01*
X302297Y185498D01*
Y184499D01*
X301297Y183499D01*
X300297D01*
X301297D01*
X302297Y182499D01*
Y181500D01*
X301297Y180500D01*
X299298D01*
X298298Y181500D01*
X314700Y360798D02*
Y354800D01*
X317699D01*
X318699Y355800D01*
Y359798D01*
X317699Y360798D01*
X314700D01*
X324697Y354800D02*
X320698D01*
X324697Y358799D01*
Y359798D01*
X323697Y360798D01*
X321698D01*
X320698Y359798D01*
X159501Y355999D02*
Y350001D01*
X162500D01*
X163500Y351001D01*
Y354999D01*
X162500Y355999D01*
X159501D01*
X165499Y350001D02*
X167499D01*
X166499D01*
Y355999D01*
X165499Y354999D01*
X276099Y186398D02*
X275099Y187398D01*
X273100D01*
X272100Y186398D01*
Y182400D01*
X273100Y181400D01*
X275099D01*
X276099Y182400D01*
X278098Y181400D02*
X280097D01*
X279098D01*
Y187398D01*
X278098Y186398D01*
X286095Y181400D02*
Y187398D01*
X283096Y184399D01*
X287095D01*
X549599Y340898D02*
X548599Y341898D01*
X546600D01*
X545600Y340898D01*
Y336900D01*
X546600Y335900D01*
X548599D01*
X549599Y336900D01*
X551598Y335900D02*
X553597D01*
X552598D01*
Y341898D01*
X551598Y340898D01*
X556596D02*
X557596Y341898D01*
X559595D01*
X560595Y340898D01*
Y339899D01*
X559595Y338899D01*
X558596D01*
X559595D01*
X560595Y337899D01*
Y336900D01*
X559595Y335900D01*
X557596D01*
X556596Y336900D01*
X459001Y271499D02*
X458002Y272499D01*
X456002D01*
X455002Y271499D01*
Y267501D01*
X456002Y266501D01*
X458002D01*
X459001Y267501D01*
X461000Y266501D02*
X463000D01*
X462000D01*
Y272499D01*
X461000Y271499D01*
X469998Y266501D02*
X465999D01*
X469998Y270500D01*
Y271499D01*
X468998Y272499D01*
X466998D01*
X465999Y271499D01*
X234099Y292398D02*
X233099Y293398D01*
X231100D01*
X230100Y292398D01*
Y288400D01*
X231100Y287400D01*
X233099D01*
X234099Y288400D01*
X236098Y287400D02*
X238097D01*
X237098D01*
Y293398D01*
X236098Y292398D01*
X241096Y287400D02*
X243096D01*
X242096D01*
Y293398D01*
X241096Y292398D01*
X387399Y330598D02*
X386399Y331598D01*
X384400D01*
X383400Y330598D01*
Y326600D01*
X384400Y325600D01*
X386399D01*
X387399Y326600D01*
X389398Y325600D02*
X391397D01*
X390398D01*
Y331598D01*
X389398Y330598D01*
X394396D02*
X395396Y331598D01*
X397395D01*
X398395Y330598D01*
Y326600D01*
X397395Y325600D01*
X395396D01*
X394396Y326600D01*
Y330598D01*
X337599Y185898D02*
X336599Y186898D01*
X334600D01*
X333600Y185898D01*
Y181900D01*
X334600Y180900D01*
X336599D01*
X337599Y181900D01*
X339598D02*
X340598Y180900D01*
X342597D01*
X343597Y181900D01*
Y185898D01*
X342597Y186898D01*
X340598D01*
X339598Y185898D01*
Y184899D01*
X340598Y183899D01*
X343597D01*
X367099Y292398D02*
X366099Y293398D01*
X364100D01*
X363100Y292398D01*
Y288400D01*
X364100Y287400D01*
X366099D01*
X367099Y288400D01*
X369098Y292398D02*
X370098Y293398D01*
X372097D01*
X373097Y292398D01*
Y291399D01*
X372097Y290399D01*
X373097Y289399D01*
Y288400D01*
X372097Y287400D01*
X370098D01*
X369098Y288400D01*
Y289399D01*
X370098Y290399D01*
X369098Y291399D01*
Y292398D01*
X370098Y290399D02*
X372097D01*
X556000Y381999D02*
X555001Y382999D01*
X553001D01*
X552002Y381999D01*
Y378001D01*
X553001Y377001D01*
X555001D01*
X556000Y378001D01*
X558000Y382999D02*
X561998D01*
Y381999D01*
X558000Y378001D01*
Y377001D01*
X477099Y379845D02*
X476099Y380844D01*
X474100D01*
X473100Y379845D01*
Y375846D01*
X474100Y374846D01*
X476099D01*
X477099Y375846D01*
X483097Y380844D02*
X481097Y379845D01*
X479098Y377845D01*
Y375846D01*
X480098Y374846D01*
X482097D01*
X483097Y375846D01*
Y376846D01*
X482097Y377845D01*
X479098D01*
X414399Y330098D02*
X413399Y331098D01*
X411400D01*
X410400Y330098D01*
Y326100D01*
X411400Y325100D01*
X413399D01*
X414399Y326100D01*
X420397Y331098D02*
X416398D01*
Y328099D01*
X418397Y329099D01*
X419397D01*
X420397Y328099D01*
Y326100D01*
X419397Y325100D01*
X417398D01*
X416398Y326100D01*
X239999Y372998D02*
X238999Y373998D01*
X237000D01*
X236000Y372998D01*
Y369000D01*
X237000Y368000D01*
X238999D01*
X239999Y369000D01*
X244997Y368000D02*
Y373998D01*
X241998Y370999D01*
X245997D01*
X489599Y340398D02*
X488599Y341398D01*
X486600D01*
X485600Y340398D01*
Y336400D01*
X486600Y335400D01*
X488599D01*
X489599Y336400D01*
X491598Y340398D02*
X492598Y341398D01*
X494597D01*
X495597Y340398D01*
Y339399D01*
X494597Y338399D01*
X493597D01*
X494597D01*
X495597Y337399D01*
Y336400D01*
X494597Y335400D01*
X492598D01*
X491598Y336400D01*
X450501Y320937D02*
X449501Y319938D01*
Y317938D01*
X450501Y316939D01*
X454499D01*
X455499Y317938D01*
Y319938D01*
X454499Y320937D01*
X455499Y326935D02*
Y322937D01*
X451500Y326935D01*
X450501D01*
X449501Y325936D01*
Y323936D01*
X450501Y322937D01*
X317000Y481499D02*
X316000Y482499D01*
X314001D01*
X313001Y481499D01*
Y477501D01*
X314001Y476501D01*
X316000D01*
X317000Y477501D01*
X318999Y476501D02*
X320999D01*
X319999D01*
Y482499D01*
X318999Y481499D01*
M02*
