G04*
G04 #@! TF.GenerationSoftware,Altium Limited,Altium Designer,23.2.1 (34)*
G04*
G04 Layer_Color=8421504*
%FSLAX25Y25*%
%MOIN*%
G70*
G04*
G04 #@! TF.SameCoordinates,D46152EC-C408-46DB-B0A5-B777A763C0D4*
G04*
G04*
G04 #@! TF.FilePolarity,Positive*
G04*
G01*
G75*
%ADD15R,0.06127X0.05924*%
%ADD16R,0.05709X0.03740*%
%ADD17R,0.03740X0.05709*%
%ADD18R,0.05924X0.06127*%
D15*
X556070Y366546D02*
D03*
Y359454D02*
D03*
X467000Y279454D02*
D03*
Y286546D02*
D03*
X477500Y359454D02*
D03*
Y366546D02*
D03*
X490000Y327093D02*
D03*
Y320000D02*
D03*
X550000Y320454D02*
D03*
Y327546D02*
D03*
X338000Y165454D02*
D03*
Y172546D02*
D03*
D16*
X522858Y369213D02*
D03*
Y361536D02*
D03*
X481500Y288839D02*
D03*
Y281161D02*
D03*
X570000Y369213D02*
D03*
Y361536D02*
D03*
X496250Y281161D02*
D03*
Y288839D02*
D03*
X511000Y281161D02*
D03*
Y288839D02*
D03*
X525750Y281161D02*
D03*
Y288839D02*
D03*
X540500Y281161D02*
D03*
Y288839D02*
D03*
X570000Y281161D02*
D03*
Y288839D02*
D03*
X555250Y281161D02*
D03*
Y288839D02*
D03*
X447500Y417000D02*
D03*
Y424677D02*
D03*
X121500Y366677D02*
D03*
Y359000D02*
D03*
X132500D02*
D03*
Y366677D02*
D03*
X507144Y361536D02*
D03*
Y369213D02*
D03*
X538572Y361536D02*
D03*
Y369213D02*
D03*
X491430Y361536D02*
D03*
Y369213D02*
D03*
D17*
X343000Y151500D02*
D03*
X335323D02*
D03*
X335161Y141000D02*
D03*
X342839D02*
D03*
X447323Y391000D02*
D03*
X455000D02*
D03*
X447661Y402000D02*
D03*
X455339D02*
D03*
X351911Y349500D02*
D03*
X359589D02*
D03*
X335161D02*
D03*
X342839D02*
D03*
X368661D02*
D03*
X376339D02*
D03*
D18*
X374546Y279000D02*
D03*
X367454D02*
D03*
X241500D02*
D03*
X234407D02*
D03*
X276407Y173000D02*
D03*
X283500D02*
D03*
M02*
